<?xml version="1.0" encoding="utf-8"?>
<!-- Generator: Adobe Illustrator 25.4.1, SVG Export Plug-In . SVG Version: 6.00 Build 0)  -->
<svg version="1.0" id="Camada_1" xmlns="http://www.w3.org/2000/svg" xmlns:xlink="http://www.w3.org/1999/xlink" x="0px" y="0px"
	 viewBox="0 0 460 950" style="enable-background:new 0 0 460 950;" xml:space="preserve">
<style type="text/css">
	.ballon40{fill:#FFFFFF;}
</style>
<path class="ballon40" d="M356.66,16.36c0,0-277.65-11.46-299.76-8.84c-22.12,2.63-39.45,28.35-44.13,52.33
	C10.3,72.52,6.74,268.58,6.9,454.4c0.14,165.99,4.01,323.81,2.19,335.45c-3.86,24.67-15.7,148.84,28.6,147.98
	c20.39-0.4,95.33,8.93,135.51,0.14c115.26-25.22,249.48,49.72,264.89-43.31c16.67-34.54,16.29-193.08,17.17-363.7
	c0.2-37.68-1.33-142.19-2.24-247.23c-1.02-118.85-3.84-238.42-49.86-262.76C393.52,15.88,367.16,13.2,356.66,16.36"/>
</svg>
