<?xml version="1.0" encoding="utf-8"?>
<!-- Generator: Adobe Illustrator 25.4.1, SVG Export Plug-In . SVG Version: 6.00 Build 0)  -->
<svg version="1.0" id="Camada_1" xmlns="http://www.w3.org/2000/svg" xmlns:xlink="http://www.w3.org/1999/xlink" x="0px" y="0px"
	 viewBox="0 0 310 140" style="enable-background:new 0 0 310 140;" xml:space="preserve">
<style type="text/css">
	.flower0{fill-rule:evenodd;clip-rule:evenodd;fill:#FBCE9D;}
	.flower1{fill-rule:evenodd;clip-rule:evenodd;fill:#007974;}
	.flower2{fill-rule:evenodd;clip-rule:evenodd;fill:#015249;}
	.flower3{fill-rule:evenodd;clip-rule:evenodd;fill:#F6AB6C;}
	.flower4{fill-rule:evenodd;clip-rule:evenodd;}
	.flower5{fill-rule:evenodd;clip-rule:evenodd;fill:#EB7809;}
	.flower6{fill-rule:evenodd;clip-rule:evenodd;fill:#8ED2F2;}
	.flower7{fill-rule:evenodd;clip-rule:evenodd;fill:#FFFFFF;}
	.flower8{fill:#BABBBE;}
	.flower9{fill-rule:evenodd;clip-rule:evenodd;fill:#FCE8E4;}
</style>
<g>
	<path class="flower0" d="M59.2,43.45c0,0-33.28,21.3-59.2,36.71V44.95c22.14-9.51,45.52-19.29,46.86-19.91
		C64,17.05,81.78,5.78,83.98,4.47c2.64-1.59,31.91,8.1,32.17,8.41c0.65,0.79-3.02,6.28-9.66,5.57c-7.04-0.76-12.78-1.19-12.78-1.19
		s-3.08,10.17-9.98,17.48C77.4,41.44,75,54.73,59.2,43.45"/>
	<path class="flower1" d="M270.39,50.31c0,0-3.82-16.13-13.06-22.43c-1.6-1.1-3.23-2.28-4.54-3.73c-0.49-0.55-0.95-1.12-1.4-1.71
		c-0.03-0.04-0.06-0.18-0.1-0.14c-0.83,1.01-0.19,4.52-0.17,5.76C251.27,40.89,257.82,48.54,270.39,50.31"/>
	<path class="flower2" d="M251.06,22.74c0.21,4.11,1.44,8.3,3.16,12.14c1.13,2.51,2.51,5.01,4.57,7.07c1.4,1.41,3.05,2.62,4.68,3.83
		c0,0,0.25,0.19,0.44,0.32c1.47,1.08,2.86,2.27,4.43,3.25c0.39,0.25,0.8,0.47,1.22,0.68l0.01,0.01c0.27,0.08,0.54,0.17,0.81,0.24
		l-0.07-0.29c-0.17-0.11-0.33-0.22-0.49-0.34c0,0-0.39-0.22-0.69-0.41c-1.37-0.85-2.58-1.88-3.82-2.87
		c-2.47-1.97-5.32-3.72-7.31-6.24c-2.41-3.05-3.89-6.57-4.98-10.03c-0.77-2.46-1.36-4.97-1.5-7.48l-0.13-0.17
		c-0.03-0.04-0.05-0.15-0.08-0.15c0,0-0.01,0-0.02,0.01C251.19,22.42,251.12,22.57,251.06,22.74"/>
	<path class="flower2" d="M252.53,23.86L252.46,24l-0.11,0.19c-0.29,0.53-0.58,1.06-0.86,1.6c-0.03,0.07-0.05,0.12-0.05,0.12
		c0.21,0.15,0.33,0.18,0.46,0.22c0.09-0.13,0.14-0.21,0.2-0.31l0.01-0.01c0.09-0.15,0.22-0.36,0.22-0.36
		c0.17-0.31,0.35-0.61,0.53-0.92l0.05-0.08l0.06-0.11c-0.06-0.07-0.12-0.13-0.18-0.2C252.7,24.05,252.62,23.96,252.53,23.86"/>
	<path class="flower2" d="M253.87,25.23c-0.29,0.49-0.56,0.99-0.83,1.5l-0.01,0.03c-0.29,0.57-0.55,1.15-0.79,1.73l-0.01,0.03l0.05,0.1
		l0.12,0.05l0.12-0.03c0.07-0.13,0.17-0.3,0.17-0.3c0.03-0.05,0.06-0.11,0.08-0.15c0.21-0.39,0.42-0.79,0.63-1.18
		c0,0,0.07-0.14,0.14-0.26c0.21-0.41,0.43-0.81,0.66-1.21C254.1,25.43,253.98,25.33,253.87,25.23"/>
	<path class="flower2" d="M257.09,27.71l-0.19,0.44l-0.03,0.07c-0.14,0.33-0.28,0.65-0.42,0.98l-0.01,0.04
		c-0.12,0.29-0.24,0.58-0.36,0.87l-0.04,0.11c-0.15,0.39-0.3,0.79-0.45,1.19l-0.01,0.04c-0.43,1.17-0.82,2.35-1.14,3.53l-0.01,0.04
		l0.08,0.07l0.13,0.04l0.1-0.01c0.02-0.04,0.03-0.07,0.04-0.11c0.54-1.53,1.18-3.03,1.83-4.52c0,0,0.08-0.17,0.13-0.3
		c0.23-0.55,0.46-1.11,0.69-1.66l0.03-0.08l0.15-0.37c-0.09-0.07-0.19-0.13-0.28-0.2L257.09,27.71z"/>
	<path class="flower2" d="M255.94,26.9c-0.12,0.21-0.24,0.42-0.36,0.63c0,0-0.06,0.12-0.11,0.21c-0.43,0.82-0.85,1.65-1.2,2.53
		c-0.18,0.44-0.33,0.89-0.47,1.35c-0.1,0.35-0.18,0.71-0.25,1.07l0.02,0.07c0.01,0.02,0.02,0.04,0.04,0.1c0,0,0.03,0.14,0.16,0.01
		c0,0,0.03-0.03,0.09-0.09c0.01-0.03,0.02-0.06,0.03-0.1c0.33-1.24,0.81-2.43,1.37-3.61c0.2-0.43,0.4-0.86,0.61-1.28
		c0,0,0.18-0.38,0.33-0.7L255.94,26.9z"/>
	<path class="flower2" d="M254.72,25.97c-0.56,0.88-1.08,1.79-1.46,2.75c-0.2,0.5-0.34,1.02-0.43,1.55c0,0,0,0.17,0.01,0.36l0.06,0.09
		l0.07-0.05c0.04-0.11,0.04-0.13,0.07-0.19c0.03-0.06,0.06-0.15,0.06-0.15c0.01-0.03,0.02-0.05,0.02-0.09
		c0.12-0.44,0.26-0.87,0.43-1.3c0.39-0.94,0.89-1.87,1.43-2.77C254.91,26.12,254.82,26.04,254.72,25.97"/>
	<path class="flower2" d="M251.04,26.98c0.08,0.13,0.17,0.27,0.26,0.4c0.09,0.14,0.22,0.33,0.22,0.33c0.1,0.13,0.18,0.21,0.18,0.21
		c0.04,0.03,0.11,0.08,0.11,0.08c0.04,0.03,0.11,0.08,0.11,0.08l0.1,0.03l0.01-0.12c-0.03-0.09-0.02-0.09-0.02-0.09l-0.02-0.07
		c-0.02-0.07-0.02-0.09-0.02-0.09c-0.05-0.08-0.12-0.19-0.12-0.19c-0.04-0.05-0.07-0.1-0.1-0.16c-0.27-0.42-0.54-0.84-0.79-1.27
		C250.99,26.44,251.02,26.72,251.04,26.98"/>
	<path class="flower2" d="M251.13,28.82c0.21,0.21,0.43,0.41,0.66,0.61c0,0,0.19,0.16,0.33,0.27l0.24,0.17l0.17,0.07
		c0.04,0.01,0.13,0.04,0.13,0.04l0.1,0l-0.04-0.12c-0.03-0.04-0.07-0.1-0.07-0.1c-0.02-0.03-0.07-0.12-0.07-0.12
		c-0.51-0.43-1-0.87-1.46-1.34C251.13,28.48,251.13,28.65,251.13,28.82"/>
	<path class="flower2" d="M250.88,24.94c0.11,0.13,0.22,0.26,0.33,0.39c0.15,0.16,0.22,0.23,0.22,0.23l0.14,0.01l0.11-0.07l0.02-0.05
		c0-0.12-0.03-0.11-0.06-0.14c-0.27-0.33-0.54-0.66-0.78-1C250.87,24.52,250.87,24.73,250.88,24.94"/>
	<path class="flower2" d="M251.21,30.33c0.48,0.5,1.02,0.97,1.62,1.41c0.14,0.1,0.27,0.15,0.27,0.15c0.07,0.01,0.13,0.03,0.2,0.04
		c0,0,0.18,0.05,0.06-0.11c0,0-0.08-0.17-0.28-0.33c-0.68-0.55-1.32-1.16-1.91-1.81C251.18,29.89,251.2,30.11,251.21,30.33"/>
	<path class="flower2" d="M258.93,29.12c-1.08,1.6-2.08,3.22-2.91,4.92c-0.23,0.48-0.45,0.97-0.65,1.47c-0.01,0.02-0.01,0.02-0.01,0.04
		c-0.04,0.1-0.07,0.2-0.11,0.29l0.01,0.09c0.01,0.14,0.01,0.1,0,0.21l0.04,0.07l0.09-0.03c0,0,0.11-0.13,0.2-0.22
		c0.02-0.05,0.05-0.1,0.07-0.14c1-2.22,2.22-4.35,3.58-6.43C259.14,29.29,259.04,29.2,258.93,29.12"/>
	<path class="flower2" d="M260.07,30.17c-0.5,0.75-0.97,1.5-1.41,2.26l-0.03,0.05c-0.42,0.75-0.82,1.52-1.19,2.29l-0.03,0.06
		c-0.34,0.75-0.67,1.5-0.99,2.26l-0.03,0.06c-0.08,0.21-0.17,0.42-0.25,0.63l-0.04,0.08l-0.02,0.06l0.03,0.14l0.04,0.08
		c0.1-0.03,0.1-0.04,0.19-0.09l0.03-0.02c0.11-0.24,0.23-0.49,0.35-0.73c0,0,0.36-0.76,0.65-1.34c0.76-1.53,1.57-3.06,2.44-4.51
		c0.19-0.32,0.38-0.64,0.57-0.95C260.3,30.4,260.19,30.29,260.07,30.17"/>
	<path class="flower2" d="M261.67,31.93c-0.92,1.29-1.87,2.57-2.68,3.92c-0.29,0.48-0.57,0.97-0.8,1.48c-0.01,0.02-0.01,0.03-0.02,0.04
		c-0.35,0.76-0.61,1.55-0.79,2.36l0.02,0.1c0.01,0.05,0.01,0.05,0.02,0.1l0.05,0.07l0.08-0.04c0,0,0.02-0.04,0.13-0.15
		c0.07-0.24,0.15-0.47,0.23-0.7c0.21-0.56,0.46-1.11,0.74-1.65c0.93-1.79,2.14-3.45,3.32-5.18
		C261.86,32.16,261.77,32.05,261.67,31.93"/>
	<path class="flower2" d="M262.71,33.26c-0.57,1.09-1.14,2.17-1.75,3.24l-0.03,0.04c-0.37,0.68-0.74,1.36-1.07,2.05
		c-0.16,0.34-0.31,0.69-0.45,1.03l-0.01,0.04c-0.2,0.53-0.39,1.07-0.54,1.61c0,0-0.02,0.27-0.05,0.52l0.05,0.07l0.08-0.04
		c0,0,0.16-0.26,0.24-0.51c0.69-1.97,1.9-3.81,2.99-5.85c0.31-0.57,0.6-1.14,0.89-1.71C262.94,33.58,262.83,33.42,262.71,33.26"/>
	<path class="flower2" d="M263.71,34.71l-0.17,0.32c-0.18,0.32-0.36,0.63-0.53,0.95l-0.02,0.04c-0.41,0.77-0.8,1.55-1.11,2.36
		c-0.31,0.82-0.53,1.69-0.73,2.56l-0.01,0.05c-0.15,0.69-0.28,1.4-0.42,2.1l-0.01,0.19l-0.01,0.19l0.05,0.07l0.08-0.04l0.07-0.17
		l0.07-0.15c0.41-1.56,0.82-3.13,1.42-4.6c0.47-1.15,1.05-2.26,1.62-3.37C263.92,35.03,263.82,34.87,263.71,34.71"/>
	<path class="flower2" d="M265.34,37.41c-0.39,0.76-0.8,1.49-1.17,2.27c-0.4,0.81-0.75,1.63-1.02,2.48c-0.18,0.55-0.3,1.12-0.42,1.68
		l-0.01,0.06l-0.02,0.08c-0.02,0.09-0.03,0.19-0.05,0.28l-0.02,0.12c0.04,0.2,0.03,0.2,0.06,0.39l0.05,0.07l0.08-0.04l0.15-0.22
		l0.09-0.11c0.03-0.07,0.05-0.15,0.07-0.23l0.05-0.16c0.17-0.59,0.34-1.18,0.53-1.76c0,0,0.13-0.43,0.26-0.77
		c0.45-1.25,1.09-2.43,1.65-3.66C265.52,37.75,265.43,37.58,265.34,37.41"/>
	<path class="flower2" d="M266.42,39.51c-0.23,0.68-0.47,1.35-0.71,2.02l-0.03,0.08c-0.23,0.67-0.46,1.34-0.66,2.02
		c-0.1,0.36-0.18,0.72-0.25,1.09c0,0.02,0,0.02-0.01,0.04c-0.01,0.06-0.02,0.12-0.03,0.18c-0.08,0.47-0.15,0.94-0.25,1.41l0.05,0.11
		l0.05,0.07l0.17-0.09c0.27-0.98,0.44-1.98,0.77-2.93c0.39-1.14,0.81-2.27,1.18-3.43C266.61,39.89,266.52,39.7,266.42,39.51"/>
	<path class="flower2" d="M267.59,42.09l-0.25,0.65l-0.02,0.04c-0.25,0.68-0.51,1.36-0.69,2.06l-0.01,0.03
		c-0.16,0.71-0.28,1.44-0.35,2.13l-0.01,0.11l0,0.11c0.01,0.12,0,0.11,0.01,0.23v0.09c0,0.1,0,0.1,0,0.2l0.06,0.09l0.08-0.06
		l0.03-0.08c0.03-0.1,0.03-0.1,0.07-0.19l0.04-0.11l0.07-0.2c0,0,0.04-0.2,0.09-0.41c0,0,0.09-0.45,0.16-0.78
		c0.07-0.32,0.14-0.65,0.23-0.97c0,0,0.06-0.25,0.13-0.48c0.18-0.62,0.39-1.22,0.61-1.82C267.77,42.51,267.68,42.3,267.59,42.09"/>
	<path class="flower2" d="M268.64,44.74c-0.09,0.73-0.19,1.46-0.32,2.18c-0.11,0.62-0.22,1.24-0.39,1.85l0.06,0.02l0.22,0.07l0.06,0.02
		c0.3-0.82,0.5-1.67,0.66-2.55l0-0.02c0.03-0.17,0.05-0.35,0.08-0.52C268.9,45.45,268.78,45.1,268.64,44.74"/>
	<path class="flower2" d="M251.38,31.95c0.32,0.23,0.66,0.46,0.99,0.69c0,0,0.32,0.21,0.6,0.38l0.02,0.01c0.14,0.08,0.27,0.15,0.41,0.23
		l0.1,0.03c0.17,0.03,0.17,0.04,0.17,0.04l0.09,0.02l0.1,0.02l0.09-0.01l-0.05-0.12c-0.03-0.03-0.1-0.11-0.1-0.11
		c-0.05-0.06-0.06-0.08-0.12-0.16c0,0-0.31-0.22-0.56-0.39c-0.62-0.42-1.23-0.86-1.83-1.31C251.32,31.5,251.35,31.72,251.38,31.95"
		/>
	<path class="flower2" d="M251.57,33.24c0.56,0.4,1.13,0.79,1.7,1.17c0.25,0.16,0.51,0.33,0.76,0.49l0.03,0.02
		c0.17,0.11,0.35,0.21,0.52,0.31l0.11-0.04l0.08-0.09l0.01-0.1c-0.16-0.11-0.32-0.21-0.48-0.32c0,0-0.43-0.3-0.74-0.51
		c-0.72-0.5-1.41-1-2.1-1.53C251.5,32.84,251.54,33.04,251.57,33.24"/>
	<path class="flower2" d="M251.94,35.01c1.04,0.62,2.11,1.23,3.18,1.9c0.04,0.03,0.08,0.05,0.12,0.07c0.07,0.04,0.17,0.1,0.17,0.1
		c0.08-0.01,0.09-0.01,0.17-0.01l0.1-0.01c-0.02-0.08-0.02-0.08-0.04-0.15l-0.02-0.09c-0.11-0.08-0.27-0.19-0.27-0.19
		c-0.42-0.28-0.85-0.55-1.28-0.82c-0.03-0.02-0.03-0.02-0.06-0.03c-0.72-0.43-1.45-0.85-2.18-1.27
		C251.86,34.68,251.9,34.85,251.94,35.01"/>
	<path class="flower2" d="M252.31,36.32l0.6,0.36l0.18,0.11c0.27,0.16,0.54,0.31,0.82,0.47l0.04,0.02c0.24,0.13,0.47,0.26,0.71,0.4
		l0.13,0.07l0.08,0.05c0.26,0.15,0.53,0.29,0.8,0.45c0,0,0.25,0.14,0.5,0.28l0.13,0.06l0.16,0.03l0.09-0.02
		c-0.03-0.11-0.04-0.1-0.11-0.2l-0.02-0.02c-0.15-0.09-0.31-0.19-0.47-0.28l-0.1-0.06c-0.25-0.15-0.51-0.3-0.77-0.45l-0.04-0.03
		c-0.57-0.33-1.14-0.66-1.71-0.98c0,0-0.28-0.16-0.5-0.28l-0.65-0.36C252.22,36.05,252.26,36.19,252.31,36.32"/>
	<path class="flower2" d="M252.95,38.13l0.03,0.01l0.15,0.07c1.08,0.5,2.16,1.04,3.19,1.5c0.46,0.2,0.93,0.37,1.42,0.47
		c0,0-0.01,0,0.07-0.07l0.02-0.11l-0.03-0.09l-0.04-0.02c-1.13-0.32-2.12-1-3.24-1.54c-0.36-0.18-0.72-0.35-1.09-0.52
		c0,0-0.32-0.15-0.55-0.26l-0.17-0.08C252.78,37.72,252.86,37.93,252.95,38.13"/>
	<path class="flower2" d="M253.92,40.19c1.16,0.43,2.31,0.85,3.47,1.22l0.01,0.01c0.23,0.06,0.46,0.13,0.69,0.19
		c0.07,0.02,0.15,0.04,0.22,0.05c0.34,0.08,0.68,0.13,1.03,0.17l0.01-0.09c0.01-0.1,0.01-0.1,0.01-0.2c-0.02,0-0.04-0.01-0.06-0.01
		c-0.6-0.12-1.18-0.29-1.76-0.49c0,0-0.43-0.14-0.78-0.26c-1.04-0.37-2.09-0.74-3.12-1.11C253.74,39.85,253.83,40.02,253.92,40.19"
		/>
	<path class="flower2" d="M255.75,42.91c1.18,0.21,2.38,0.36,3.57,0.5l0.08,0.01c0.19,0.02,0.39,0.04,0.58,0.07l0.02,0
		c0.24,0.02,0.56,0.05,0.56,0.05l0.08-0.03l0.14-0.04l0.07-0.05l-0.06-0.07l-0.13-0.07l-0.08-0.05c-0.15-0.02-0.3-0.04-0.45-0.07
		l-0.11-0.02c-0.18-0.02-0.37-0.04-0.55-0.07c0,0-0.3-0.04-0.52-0.07c-1.17-0.14-2.33-0.29-3.51-0.5
		C255.53,42.64,255.64,42.78,255.75,42.91"/>
	<path class="flower2" d="M257.04,44.34c1.27,0.15,2.55,0.26,3.85,0.36c0.35,0.03,0.7,0.05,1.05,0.07l0.17-0.04l0.17-0.03l0.07-0.05
		l-0.07-0.06l-0.17-0.06l-0.16-0.07c-0.34-0.03-0.67-0.06-1.02-0.1l-0.05,0c-1.4-0.11-2.8-0.22-4.2-0.39
		C256.8,44.1,256.92,44.22,257.04,44.34"/>
	<path class="flower2" d="M258.63,45.74c0.95,0.1,1.91,0.15,2.87,0.17l0.03,0c0.71,0,1.4-0.01,2.1-0.06l0.05-0.01
		c0.04-0.21,0-0.17-0.05-0.27c-1.29,0.02-2.6-0.01-3.91-0.11c-0.54-0.04-1.08-0.09-1.61-0.15C258.28,45.46,258.46,45.6,258.63,45.74
		"/>
	<path class="flower2" d="M260.26,46.87c1.03,0.06,2.06,0.08,3.09,0.05c0.62-0.02,1.25-0.07,1.84-0.14l0.05-0.1l-0.02-0.12l-0.09-0.09
		c-0.05,0-0.11,0-0.16,0.01c-0.56,0.03-1.11,0.06-1.67,0.06c-1.22,0.02-2.44-0.01-3.68-0.09C259.83,46.6,260.04,46.74,260.26,46.87"
		/>
	<path class="flower2" d="M262.74,48.19c1.01,0.09,2.04,0.13,3.05,0.08c0,0,0.39-0.03,0.59-0.05c0.15-0.02,0.3-0.04,0.44-0.06l0.06-0.01
		c0.03-0.05,0.05-0.08,0.07-0.1l0.05-0.07c-0.06-0.04-0.06-0.04-0.12-0.07l-0.08-0.06c-0.97,0.09-1.96,0.1-2.95,0.05
		c-0.68-0.03-1.36-0.08-2.03-0.15C262.12,47.9,262.43,48.05,262.74,48.19"/>
	<path class="flower2" d="M266.63,49.56c0.1-0.01,0.2-0.02,0.3-0.04c0.27-0.04,0.53-0.09,0.78-0.14c0.07-0.01,0.41-0.1,0.57-0.15
		c0,0,0-0.08-0.02-0.13c-0.03-0.1-0.06-0.14-0.12-0.23c-0.04,0.01-0.07,0.01-0.11,0.02c-0.35,0.07-0.7,0.14-1.06,0.19
		c0,0-0.15,0.02-0.3,0.04c-0.37,0.05-0.74,0.1-1.12,0.13C265.9,49.36,266.26,49.46,266.63,49.56"/>
	<path class="flower3" d="M109.18,17.54c-0.55-0.57-1.06-1.08-1.48-1.5c-1.01-0.99-2.11-1.89-3.31-2.67c-2.81-1.84-6.07-3.03-9.37-3.49
		C90.18,9.2,85.19,10.14,81,13.21c-1,0.73-1.91,1.58-2.74,2.52c-1.16,0.86-2.26,1.84-3.28,2.98c-3.71,4.09-4.91,10.48-3.77,16.46
		c1.1,5.76,4.35,11.07,9.26,13.6L75,54.73l43.5,40.4c0,0,6.1-11.98,12.8-25.34c9.54-4.44,24.69-11.15,28.1-10.63
		c4.16,0.63,10.49,7.7,12.62,10.21l-3.09,1.84l2.16,3.34l11.82-7.04l-2.16-3.34l-4.64,2.76c-1.45-2.34-12.03-19.18-15.96-18.39
		c-2.91,0.58-13.38,1.97-19.67,2.77c4.77-9.72,8.31-17.21,7.91-17.27c-1.13-0.17-32.6-23.71-32.6-23.71L109.18,17.54z M104.71,22.4
		c0,0-18.41,20.93-18.53,20.8c-0.61-0.62-2.16-2.15-2.69-2.86c-1.96-2.61-2.76-5.78-2.48-8.88c0.29-3.09,1.65-6.11,4.02-8.43
		c2.18-2.13,5.21-3.3,8.34-3.62c3.19-0.32,6.51,0.25,9.22,1.68C103.33,21.48,104.03,21.92,104.71,22.4z"/>
	<path class="flower4" d="M116.01,10.51c1.13,2.2,4.62,7.44,12.42,13.38c9.47,7.21,17.28,9.62,19.53,9.95
		C144.24,31.59,118.63,12.47,116.01,10.51"/>
	<path class="flower4" d="M173.75,63.26c-1.43,0.89-3.2,1.99-4.63,2.9c1.12,1.17,2.08,2.25,2.72,3l4.06-2.56
		C175.47,65.92,174.71,64.72,173.75,63.26"/>
	<path class="flower4" d="M131.58,69.66c2.29-4.6,6.96-14.03,9.1-18.37c1.17-0.15,2.48-0.32,3.85-0.5c-2.31,4.27-8.97,13.74-12.31,18.57
		L131.58,69.66z"/>
	<path class="flower4" d="M147.53,36.48c-3.68-0.77-7.19-2.15-10.56-3.89c-1.36-0.7-2.7-1.46-4.02-2.26c-3.74-2.23-7.32-4.75-10.6-7.45
		c-1.46-1.2-2.84-2.44-4.18-3.65c-0.02-0.02-0.06-0.02-0.08,0c-0.02,0.02-0.02,0.06,0,0.07c1.3,1.27,2.65,2.53,4.04,3.81
		c3.15,2.89,6.47,5.8,10.13,8.22c1.31,0.87,2.68,1.67,4.07,2.39c3.39,1.76,6.98,3.1,10.72,3.83
		C147.23,37.17,147.39,36.81,147.53,36.48"/>
	<path class="flower4" d="M107.44,15.79c-1.74,1.48-4.04,3.79-5.29,5.08c0.15,0.07,0.3,0.15,0.44,0.22c0.7,0.37,1.36,0.78,2,1.22
		c1.37-1.45,3.1-3.33,4.48-4.89c-0.5-0.53-0.97-0.99-1.37-1.38C107.61,15.95,107.52,15.87,107.44,15.79"/>
	<path class="flower4" d="M85.68,43.68c0.12-0.14,0.24-0.36,0.35-0.64c-0.39-0.39-0.99-0.99-1.53-1.57c-1.54,1.52-4.4,4.34-6.07,6
		c0.65,0.48,1.33,0.92,2.06,1.29l-0.75,0.81C81.73,47.65,84.8,44.7,85.68,43.68"/>
	<path class="flower0" d="M82.93,24.41c-0.8-1.19-0.27-2.37,1.18-2.71c6.46-1.53,25.27-5.77,25.27-5.77c4.54,5.57,2.06,8.49-3.37,10
		c2.37,5.55-0.34,7.63-5.35,7.88c1.57,5.38-0.77,7.29-5.06,7.27c1.88,9.29-8.2,6.68-18.8,2.23c-10.69-4.49-9.62-9.22-6.23-8.44
		c2.02,0.47,5.24,1.23,8.71,2.06c-9.87-4.05-9.1-8.76-5.65-8.17c1.78,0.31,4.44,0.78,7.4,1.3c-5.49-2.68-4.96-5.91-2.14-5.81
		C79.95,24.29,81.35,24.34,82.93,24.41"/>
	<path class="flower4" d="M109.23,24.65c-1.01-0.09-2.05-0.08-3.07-0.15c-7.81-0.5-15.67-0.6-23.49-0.6c0.06,0.17,0.15,0.33,0.26,0.5
		l-0.43-0.02c7.81,0.95,15.52,3.05,23.44,3.1c0.21,0,0.41,0,0.62,0.01c-0.14-0.49-0.33-1.02-0.57-1.58
		C107.25,25.58,108.34,25.16,109.23,24.65"/>
	<path class="flower4" d="M102.64,33.58c-1.2-0.24-2.41-0.43-3.62-0.6c-6.49-0.91-13.05-1.19-19.54-2.2c-0.1-0.02-0.21,0.04-0.23,0.14
		c-0.03,0.1,0.04,0.2,0.14,0.22c5.45,1.45,10.87,2.82,16.44,3.68c1.73,0.27,3.47,0.53,5.22,0.73c-0.08-0.53-0.21-1.11-0.39-1.74
		C101.37,33.76,102.03,33.69,102.64,33.58"/>
	<path class="flower4" d="M97.59,40.91c-1.23-0.41-2.59-0.52-3.79-0.84c-2.2-0.54-4.4-1.09-6.63-1.51c-2.23-0.42-4.47-0.7-6.71-1.06
		c-1.39-0.21-2.69-0.67-4.04-0.97c-0.94-0.22-1.89-0.36-2.89-0.33c-0.12-0.01-0.22,0.08-0.23,0.19c-0.01,0.11,0.07,0.21,0.19,0.22
		l6.59,2.37l13.07,3.29l2.67,0.4c-0.03-0.48-0.1-1.01-0.21-1.58C96.31,41.07,96.98,41.02,97.59,40.91"/>
	<path class="flower4" d="M266.72,66.5c0.06-0.01,0.08-0.01,0.14-0.03c0.35-0.11,0.53-0.55,0.79-0.92c1.7-2.51,4.03-4.55,6.59-6.2
		c3.58-2.33,7.48-4.2,10.7-7.16c0.09-0.08,0.17-0.16,0.25-0.24c0.29-0.27,0.45-0.84,0.06-1.14c-0.3-0.22-0.71-0.12-0.99,0.15
		c-3.71,3.51-8.55,5.46-12.71,8.61c-2.09,1.58-3.93,3.49-5.34,5.71c-0.22,0.35-0.3,0.9,0.13,1.14
		C266.45,66.48,266.58,66.51,266.72,66.5"/>
	<path class="flower4" d="M265.64,115.97c0.06-0.04,0.13-0.08,0.18-0.12c0.2-0.2,0.21-0.48,0.15-0.93c-0.39-2.83-0.61-5.69-0.82-8.54
		c-0.55-7.52-0.95-15.06-0.82-22.64c0.04-1.9,0.11-3.77,0.37-5.67c2.08-15.46,10-29.65,13.01-45.03c0.76-3.85,1.2-7.77,1.22-11.69
		l0-0.12l-0.03-0.21c-0.09-0.17-0.09-0.23-0.25-0.34c-0.39-0.29-1.08-0.04-1.09,0.61c0,0.06,0,0.12,0,0.18
		c-0.05,5.32-0.89,10.68-2.24,15.9c-1.5,5.83-3.58,11.5-5.59,17.16c-2.74,7.7-5.36,15.51-6.42,23.6c-0.42,3.22-0.39,6.48-0.36,9.73
		c0.08,7.45,0.47,14.91,1.13,22.31c0.15,1.71,0.32,3.43,0.56,5.13c0.07,0.46,0.29,0.69,0.58,0.74
		C265.37,116.05,265.51,116.01,265.64,115.97"/>
	<path class="flower3" d="M277.59,31.19c-2.99-2.72-3.54-6.55-5.54-10.01c-1.64-2.85-4.84-6.4-4.3-10.15c0.41-2.86,2.27-2.43,4.05-3.57
		c0.95-0.62,1.49-1.92,2.52-2.62c1.62-1.09,2.95,0.25,3.42,0.88c0.79,1.07,1.74,7.34,1.51,13.7
		C279.13,23.13,277.59,31.19,277.59,31.19"/>
	<path class="flower3" d="M277.31,31.3c-0.4-4.27,1.62-7.47,2.4-11.52c0.64-3.33,0.61-8.37,3.36-10.66c2.09-1.75,3.14,0,5.12,0.55
		c1.06,0.29,2.27-0.24,3.44,0.06c1.83,0.47,1.93,2.47,1.87,3.29c-0.11,1.38-3.4,6.65-7.58,11.07
		C283.48,26.66,277.31,31.3,277.31,31.3"/>
	<path class="flower3" d="M277.27,31.16c1.89-3.78,5.2-5.13,7.92-7.97c2.25-2.34,4.83-6.51,8.26-6.65c2.61-0.11,2.55,2,3.87,3.71
		c0.71,0.92,1.96,1.25,2.76,2.24c1.25,1.55,0.29,3.27-0.19,3.9c-0.81,1.07-6.21,3.31-11.9,4.3
		C284.69,31.27,277.27,31.16,277.27,31.16"/>
	<path class="flower3" d="M281.86,54.02c0.15-3.98,2.46-6.37,3.7-9.84c1.02-2.86,1.61-7.44,4.51-8.82c2.21-1.05,2.99,0.8,4.8,1.81
		c0.98,0.54,2.18,0.36,3.26,0.93c1.69,0.89,1.54,2.74,1.37,3.46c-0.28,1.22-4.06,5.17-8.57,8.12
		C288.3,51.39,281.86,54.02,281.86,54.02"/>
	<path class="flower3" d="M281.85,54c2.64,2.74,6.29,3.52,9.69,3.69c6.83,0.33,9.78,0.37,10.46-1.77c0.36-1.15,1.35-1.97,1.77-3.22
		c0.65-1.96-0.63-3.16-1.21-3.55c-0.98-0.66-6.22-0.53-11.37,0.88C288.19,50.85,281.85,54,281.85,54"/>
	<path class="flower3" d="M258.5,71.25c-2.19-2.44-5.68-6.75-9.43-7.41c-1.46-0.26-3.82,0.03-3.78,2.26c0.01,0.98,0.38,1.89,0.31,2.88
		c-0.08,1.14-0.92,2.72-0.27,3.8c1.21,2.03,4.06,0.31,5.8,0.6c5.92,0.99,7.44,2.61,10.96,5.2C262.09,78.59,261.49,74.58,258.5,71.25
		"/>
	<path class="flower3" d="M261.43,68.83c-0.59-3.39-1.32-9.14-4.09-12c-1.08-1.12-3.17-2.32-4.26-0.43c-0.48,0.83-0.63,1.82-1.18,2.61
		c-0.63,0.91-2.12,1.72-2.13,3.02c-0.01,2.45,3.2,2.75,4.5,4.06c4.4,4.46,4.84,6.76,6.46,11.09
		C260.73,77.18,262.24,73.46,261.43,68.83"/>
	<path class="flower5" d="M271.45,12.17c0.08-0.04,0.02-0.05,0.11-0.05c0.16,0,0.29,0.15,0.43,0.27c0.48,0.39,0.89,1,1.3,1.74
		c0.56,1.02,1.05,2.31,1.46,3.69c0.37,1.24,0.67,2.55,0.89,3.82c0.41,2.39,0.57,4.6,0.59,5.85c0.01,0.19-0.13,0.35-0.32,0.37
		c-0.19,0.01-0.35-0.13-0.36-0.32c-0.13-1.21-0.57-3.34-1.08-5.66c-0.28-1.23-0.57-2.51-0.89-3.73c-0.35-1.33-0.72-2.59-1.13-3.62
		c-0.28-0.71-0.57-1.3-0.87-1.77c-0.09-0.14-0.2-0.24-0.23-0.38c-0.02-0.09,0.01-0.03,0.03-0.11c-0.03-0.02-0.03-0.06-0.01-0.09
		C271.38,12.15,271.42,12.15,271.45,12.17"/>
	<path class="flower5" d="M274.86,12.66c0.1,0,0.09-0.04,0.19,0.01c0.08,0.04,0.12,0.14,0.17,0.22c0.59,0.81,1.01,1.95,1.28,3.2
		c0.42,1.97,0.44,4.17,0.55,5.59c0.01,0.16-0.1,0.3-0.26,0.31c-0.16,0.01-0.3-0.1-0.31-0.26c-0.15-1.4-0.36-3.54-0.72-5.5
		c-0.22-1.17-0.48-2.27-0.93-3.1c-0.04-0.07-0.11-0.14-0.12-0.22c-0.01-0.1,0.03-0.08,0.06-0.17c-0.03-0.03-0.02-0.07,0.01-0.09
		C274.8,12.62,274.84,12.63,274.86,12.66"/>
	<path class="flower5" d="M293.81,22.6c-0.01,0.08,0,0.11-0.04,0.18c-0.21,0.36-0.66,0.52-1.07,0.7c-0.93,0.41-2.06,0.57-2.89,1
		c-2.15,1.01-4.05,2.37-6.08,3.52c-0.89,0.51-1.82,0.93-2.75,1.35c-0.16,0.09-0.36,0.03-0.45-0.13c-0.09-0.16-0.03-0.36,0.13-0.45
		c0.68-0.45,1.31-0.94,1.99-1.38c1.01-0.67,2.06-1.29,3.11-1.91c1.17-0.69,2.38-1.33,3.64-1.89c0.28-0.12,0.59-0.21,0.92-0.29
		c0.67-0.16,1.4-0.28,2.08-0.44c0.41-0.1,0.77-0.29,1.15-0.38c0.08-0.02,0.1,0.01,0.18,0.01c0.03-0.02,0.07-0.02,0.09,0.01
		C293.84,22.53,293.84,22.57,293.81,22.6"/>
	<path class="flower5" d="M288.92,21.19c-0.02-0.07-0.1-0.07-0.08-0.1c0.07-0.1-0.14,0.12-0.06,0.12c0.06,0,0.1,0.03,0.16,0.1
		c0.02,0.03-0.02,0.07-0.06,0.1c-0.14,0.12-0.32,0.26-0.37,0.3c-0.64,0.49-1.25,1-1.88,1.49c-0.95,0.74-1.91,1.47-2.88,2.18
		c-0.28,0.2-0.56,0.41-0.86,0.59c-0.46,0.27-0.93,0.47-1.41,0.71c-0.1,0.07-0.23,0.05-0.3-0.05c-0.07-0.09-0.05-0.23,0.04-0.3
		c0.41-0.43,0.77-0.87,1.2-1.27c0.42-0.39,0.89-0.73,1.34-1.09c0.68-0.53,1.36-1.07,2.07-1.56c0.71-0.5,1.45-0.96,2.19-1.41
		c0.09-0.04,0.56-0.34,0.79-0.32c0.07,0.01,0.13-0.01,0.18,0.02c0.04,0.03,0.1,0.01,0.11,0.06c0.04,0.15,0.12,0.02,0.04,0.18
		c-0.01,0.03,0.02,0.04,0,0.07c-0.03,0.06-0.01,0.12-0.11,0.2c-0.01,0.04-0.05,0.06-0.08,0.05
		C288.93,21.26,288.91,21.23,288.92,21.19"/>
	<path class="flower5" d="M287.14,15.78c-0.25,0.37-0.45,0.74-0.7,1.09c-0.37,0.51-0.77,0.98-1.12,1.5c-0.23,0.34-0.43,0.69-0.65,1.05
		c-0.14,0.23-0.3,0.46-0.44,0.7c-0.08,0.18-0.3,0.26-0.48,0.18c-0.18-0.08-0.26-0.3-0.18-0.48c0.13-0.35,0.26-0.7,0.44-1.02
		c0.26-0.49,0.6-0.93,0.95-1.36c0.29-0.35,0.59-0.7,0.94-1c0.36-0.3,0.75-0.51,1.15-0.76c0.03-0.02,0.07-0.02,0.09,0
		C287.16,15.71,287.16,15.75,287.14,15.78"/>
	<path class="flower5" d="M291.02,38.25c0.1,0.11,0.13,0.06,0.18,0.2c0.06,0.21-0.05,0.44-0.09,0.66c-0.22,1.38-0.58,2.88-1.1,4.38
		c-0.32,0.94-0.71,1.88-1.14,2.79c-0.73,1.56-1.55,3.08-2.55,4.35c-0.74,0.94-1.57,1.72-2.4,2.38c-0.1,0.1-0.27,0.09-0.37-0.01
		c-0.1-0.1-0.09-0.27,0.01-0.36c0.68-0.76,1.27-1.67,1.88-2.63c0.57-0.88,1.14-1.8,1.66-2.77c0.73-1.37,1.38-2.82,1.95-4.25
		c0.4-1,0.77-1.98,1.08-2.93c0.19-0.58,0.17-1.24,0.51-1.69c0.09-0.12,0.13-0.07,0.25-0.15c0-0.04,0.04-0.06,0.08-0.05
		C291.01,38.18,291.03,38.21,291.02,38.25"/>
	<path class="flower5" d="M292.79,41.64c0.13,0.1,0.09-0.04,0.15,0.12c0.04,0.09-0.03,0.2-0.06,0.3c-0.25,1.04-0.78,2.05-1.41,3.02
		c-0.49,0.76-1.04,1.51-1.62,2.2c-0.6,0.72-1.25,1.37-1.78,2.03c-0.08,0.11-0.23,0.13-0.33,0.06c-0.11-0.08-0.13-0.22-0.06-0.33
		c0.41-0.69,0.87-1.42,1.4-2.13c0.73-1,1.55-1.99,2.21-3.02c0.44-0.69,0.82-1.38,1.1-2.09c0.02-0.06,0.02-0.15,0.08-0.19
		c0.17-0.12-0.03,0,0.19-0.01c0.01-0.04,0.04-0.06,0.08-0.05C292.77,41.57,292.79,41.61,292.79,41.64"/>
	<path class="flower5" d="M294.77,52.11c-0.11,0.07-0.16,0.14-0.28,0.19c-0.36,0.15-0.75,0.17-1.11,0.28c-1.1,0.3-2.15,0.75-3.25,1.08
		c-0.69,0.2-1.4,0.33-2.13,0.39c-0.12,0.02-0.22-0.07-0.24-0.18c-0.02-0.12,0.06-0.22,0.18-0.24c0.8-0.16,1.55-0.47,2.3-0.75
		c0.78-0.29,1.55-0.58,2.35-0.79c0.63-0.16,1.3-0.43,1.94-0.26c0.11,0.03,0.13,0.08,0.23,0.15c0.03,0,0.07,0.03,0.07,0.06
		C294.84,52.07,294.81,52.11,294.77,52.11"/>
	<path class="flower5" d="M289.38,57.57c2.06-0.46,4.29,0.39,7.64-2.42c2.72-2.29,3.69,0.43,6.89-2.69c0.04-0.04-0.72,3.67-3.02,4.9
		C296.89,59.49,289.38,57.57,289.38,57.57"/>
	<path class="flower4" d="M234.23,126.37c-0.07-0.04-0.15-0.08-0.21-0.12c-0.24-0.2-0.25-0.48-0.18-0.93c0.46-2.83,0.73-5.69,0.98-8.54
		c0.66-7.52,1.14-15.06,0.98-22.64c-0.04-1.9-0.13-3.77-0.44-5.67C232.88,73,223.4,58.81,219.81,43.44
		c-0.91-3.85-1.43-7.77-1.46-11.69l0-0.12l0.04-0.21c0.1-0.17,0.11-0.23,0.3-0.34c0.47-0.29,1.29-0.04,1.3,0.61
		c0,0.06,0,0.12,0,0.18c0.05,5.32,1.07,10.68,2.67,15.9c1.79,5.83,4.28,11.5,6.69,17.16c3.28,7.7,6.41,15.51,7.67,23.6
		c0.5,3.22,0.47,6.48,0.43,9.73c-0.1,7.45-0.56,14.91-1.35,22.31c-0.18,1.71-0.38,3.43-0.67,5.13c-0.08,0.46-0.34,0.69-0.7,0.74
		C234.56,126.46,234.39,126.42,234.23,126.37"/>
	<path class="flower6" d="M227.7,19.49c1.75-1.37,4.84-2.05,5.6,0.91c0.98,3.81-3.55,9.32-3.55,9.32s0.92-0.37,1.38-0.55
		c1.12-0.44,2.25-0.79,3.41-1.07c2.09-0.5,8.94-1.07,8.41,3.23c-0.41,3.31-4.28,4.37-6.89,4.75c-0.86,0.12-1.72,0.31-2.6,0.35
		c-0.43,0.02-1.28-0.02-1.28-0.02s3.49,2.08,5.02,3.23c2.11,1.58,6.7,6.45,1.7,7.89c-2.31,0.66-5.46-0.96-7.5-2.03
		c-0.73-0.39-1.48-0.75-2.2-1.16c-0.38-0.21-1.11-0.68-1.11-0.68s6.57,9.13,0.45,10.17c-3.96,0.67-7.09-4.38-9.24-7.22
		c-0.2-0.27-0.06,0.68-0.08,1.03c-0.06,1.05-0.04,2.09-0.18,3.14c-0.27,2.17-1.85,6.79-4.78,4.99c-2.18-1.35-2.52-4.39-2.49-6.79
		c0.01-0.7,0.08-1.36,0.21-2.04c0.08-0.39,0.52-1.41,0.22-1.17c-2.66,2.1-7.66,6.8-10.91,2.23c-1.95-2.74,0.5-5.15,2.59-6.59
		c0.78-0.54,3.64-1.82,3.64-1.82s-11.18-3.86-8.34-7.92c1.99-2.85,6.33-1.2,8.84-0.1c1.12,0.49,2.19,1.12,3.23,1.77
		c0.05,0.03,0.18,0.16,0.15,0.1c-0.97-1.95-9.66-8.9-5.14-11.9c2.8-1.86,6.61,1.98,8.23,4.02c0.55,0.7,1.29,1.92,1.75,2.68
		c0.24,0.39-1.66-4.64-1.7-7.48c-0.06-4.01,4.49-6.44,7.13-2.77c1.94,2.69,2.27,6.8,1.85,9.71
		C223.54,27.69,224.73,21.81,227.7,19.49"/>
	<path class="flower7" d="M219.1,32.13c-3.89,1.25-6.33,4.47-5.46,7.19c0.87,2.72,4.74,3.91,8.63,2.66c3.89-1.25,6.33-4.47,5.46-7.19
		C226.85,32.07,222.99,30.88,219.1,32.13"/>
	<path class="flower4" d="M220.3,33.42c-0.02,0.09,0.04,0.04-0.03,0.11c-0.09,0.1-0.24,0.12-0.38,0.12c-0.12,0-0.19-0.07-0.31-0.09
		c-0.08,0.03-0.17-0.02-0.19-0.1c-0.02-0.08,0.02-0.17,0.1-0.19c0.09-0.1,0.15-0.19,0.27-0.24c0.13-0.05,0.29-0.08,0.42-0.02
		c0.08,0.04,0.01,0.02,0.06,0.09c0.09-0.02,0.17,0.04,0.18,0.13C220.44,33.32,220.38,33.4,220.3,33.42"/>
	<path class="flower4" d="M222.74,33.74c-0.04,0.22,0.12,0.09-0.05,0.24c-0.2,0.17-0.52,0.01-0.78,0.04c-0.11,0.03-0.22-0.04-0.25-0.15
		c-0.03-0.11,0.04-0.22,0.15-0.25c0.25-0.11,0.51-0.37,0.76-0.28c0.21,0.07,0.01,0.02,0.13,0.2c0.05-0.01,0.1,0.03,0.11,0.08
		C222.83,33.68,222.8,33.73,222.74,33.74"/>
	<path class="flower4" d="M220.92,35.3c-0.11,0.17-0.01,0.2-0.19,0.3c-0.19,0.11-0.44,0.1-0.64,0.04c-0.12-0.03-0.09-0.08-0.19-0.15
		c-0.1,0.02-0.19-0.05-0.21-0.14c-0.02-0.1,0.05-0.19,0.14-0.21c0.07-0.11,0.04-0.14,0.15-0.21c0.2-0.13,0.48-0.18,0.7-0.1
		c0.19,0.07,0.1,0.12,0.23,0.27c0.05,0,0.1,0.04,0.11,0.09C221.02,35.25,220.98,35.3,220.92,35.3"/>
	<path class="flower4" d="M224.03,35.67c-0.06,0.1,0,0.1-0.1,0.17c-0.12,0.09-0.28,0.11-0.43,0.12c-0.29,0.01-0.55-0.09-0.84-0.14
		c-0.08,0.01-0.14-0.05-0.15-0.13c-0.01-0.08,0.05-0.14,0.13-0.15c0.28-0.09,0.52-0.23,0.8-0.26c0.15-0.02,0.31-0.02,0.44,0.05
		c0.1,0.05,0.05,0.06,0.12,0.15c0.05,0,0.1,0.04,0.11,0.09C224.12,35.62,224.08,35.66,224.03,35.67"/>
	<path class="flower4" d="M225.53,33.88c-0.07,0.15,0.07,0.09-0.07,0.17c-0.17,0.09-0.37-0.04-0.57-0.02c-0.11,0.02-0.21-0.05-0.23-0.16
		c-0.02-0.11,0.05-0.21,0.16-0.23c0.19-0.06,0.38-0.13,0.58-0.13c0.03,0,0.06-0.01,0.08,0.01c0.13,0.1,0.01,0.02,0.06,0.17
		c0.05,0,0.09,0.05,0.09,0.1C225.63,33.84,225.58,33.89,225.53,33.88"/>
	<path class="flower4" d="M226.72,36.99c-0.09,0.13-0.05,0.17-0.18,0.25c-0.25,0.13-0.56,0.01-0.84,0.01c-0.16,0-0.3-0.12-0.3-0.29
		c0-0.16,0.13-0.3,0.29-0.3c0.26-0.02,0.54-0.14,0.79-0.06c0.14,0.05,0.1,0.11,0.22,0.2c0.05-0.01,0.1,0.03,0.11,0.08
		C226.81,36.93,226.77,36.98,226.72,36.99"/>
	<path class="flower4" d="M225.5,39.02c0.16,0.2,0.1-0.09,0.12,0.16c0.02,0.19-0.19,0.33-0.33,0.46c-0.15,0.14-0.33,0.27-0.53,0.33
		c-0.1,0.03-0.18,0.01-0.28,0.01c-0.1,0.05-0.21,0.02-0.27-0.07c-0.05-0.09-0.02-0.21,0.07-0.26c0.08-0.1,0.11-0.19,0.19-0.28
		c0.16-0.16,0.35-0.28,0.52-0.42c0.05-0.04,0.09-0.1,0.16-0.11c0.25-0.04-0.05-0.01,0.19,0.08c0.03-0.04,0.09-0.05,0.13-0.02
		C225.52,38.92,225.53,38.98,225.5,39.02"/>
	<path class="flower4" d="M223.64,38.04c0,0.06,0.03,0.04,0,0.09c-0.07,0.12-0.24,0.15-0.38,0.2c-0.16,0.06-0.32,0.08-0.49,0.1
		c-0.1,0.04-0.21-0.01-0.25-0.11c-0.04-0.1,0.01-0.21,0.11-0.25c0.07-0.06,0.1-0.12,0.17-0.18c0.14-0.11,0.28-0.26,0.46-0.3
		c0.05-0.01,0.07,0.01,0.12,0.02c0.12-0.07,0.27-0.03,0.34,0.09C223.8,37.82,223.76,37.97,223.64,38.04"/>
	<path class="flower4" d="M220,37.24c0.08,0.38,0.21-0.08,0.06,0.29c-0.04,0.1-0.18,0.13-0.28,0.17c-0.31,0.11-0.64,0.1-0.95,0.08
		c-0.14,0.02-0.26-0.08-0.28-0.22c-0.02-0.14,0.08-0.26,0.21-0.28c0.16-0.07,0.28-0.18,0.45-0.26c0.15-0.07,0.3-0.2,0.46-0.17
		c0.29,0.05,0.02,0.04,0.24,0.22c0.05-0.02,0.11,0,0.13,0.04C220.06,37.16,220.04,37.22,220,37.24"/>
	<path class="flower4" d="M217.94,34.6c-0.01,0.19,0.11,0.09-0.01,0.23c-0.18,0.23-0.56,0.16-0.84,0.25c-0.09,0.04-0.2,0-0.25-0.09
		c-0.04-0.09,0-0.21,0.09-0.25c0.26-0.17,0.46-0.51,0.77-0.48c0.19,0.02,0.03,0.03,0.17,0.16c0.05-0.02,0.11,0,0.13,0.05
		C218.02,34.53,217.99,34.59,217.94,34.6"/>
	<path class="flower4" d="M214.99,36.96c0.18,0.26,0.11-0.1,0.14,0.21c0.01,0.06-0.04,0.11-0.08,0.16c-0.1,0.13-0.22,0.23-0.36,0.32
		c-0.15,0.1-0.28,0.14-0.44,0.22c-0.07,0.07-0.19,0.07-0.26,0c-0.07-0.07-0.07-0.19-0.01-0.26c0.06-0.13,0.09-0.24,0.16-0.37
		c0.09-0.16,0.19-0.31,0.33-0.44c0.04-0.04,0.08-0.08,0.14-0.08c0.31-0.02-0.05-0.02,0.23,0.11c0.03-0.04,0.1-0.05,0.14-0.01
		C215.02,36.86,215.02,36.92,214.99,36.96"/>
	<path class="flower4" d="M216.83,37.91c0.01,0.15,0.05,0.02,0.01,0.17c-0.02,0.06-0.04,0.1-0.1,0.14c-0.11,0.09-0.25,0.13-0.39,0.16
		c-0.15,0.04-0.29,0.03-0.44,0.05c-0.09,0.04-0.2,0.01-0.24-0.08c-0.04-0.09-0.01-0.2,0.08-0.24c0.11-0.11,0.19-0.22,0.32-0.31
		c0.12-0.08,0.24-0.17,0.38-0.2c0.07-0.01,0.11-0.01,0.17,0.02c0.14,0.06,0.01,0.01,0.13,0.12c0.05-0.02,0.11,0,0.13,0.05
		C216.9,37.83,216.88,37.88,216.83,37.91"/>
	<path class="flower4" d="M220.62,39.97c-0.08,0.09-0.03,0.12-0.14,0.17c-0.22,0.11-0.48,0.06-0.73,0.05c-0.17-0.01-0.32-0.07-0.49-0.09
		c-0.11,0.01-0.2-0.08-0.21-0.19c-0.01-0.11,0.08-0.21,0.19-0.21c0.24-0.06,0.46-0.13,0.7-0.15c0.21-0.01,0.47-0.06,0.63,0.07
		c0.11,0.09,0.01,0.03,0.07,0.16c0.05,0,0.09,0.05,0.09,0.1C220.72,39.93,220.68,39.97,220.62,39.97"/>
	<path class="flower4" d="M219.08,41.54c-0.06,0.15,0.04,0.08-0.08,0.18c-0.1,0.08-0.23,0.06-0.35,0.07c-0.21,0.01-0.41-0.01-0.61-0.07
		c-0.14-0.05-0.24-0.12-0.37-0.2c-0.1-0.02-0.17-0.12-0.15-0.22c0.02-0.1,0.12-0.17,0.22-0.15c0.14-0.02,0.25-0.07,0.39-0.07
		c0.19-0.01,0.37,0,0.55,0.02c0.11,0.01,0.23,0,0.31,0.07c0.12,0.09,0.02,0.04,0.09,0.18c0.05,0,0.1,0.04,0.1,0.09
		C219.18,41.49,219.13,41.54,219.08,41.54"/>
	<path class="flower4" d="M215.95,40.21c-0.1,0.17,0.08,0.02-0.08,0.14c-0.04,0.03-0.07,0.03-0.12,0.03c-0.2-0.02-0.36-0.17-0.54-0.28
		c-0.11-0.04-0.17-0.17-0.13-0.28c0.04-0.11,0.17-0.17,0.28-0.12c0.19,0.04,0.39,0.01,0.55,0.09c0.04,0.02,0.06,0.04,0.08,0.08
		c0.08,0.18,0-0.04,0,0.16c0.05,0.01,0.08,0.07,0.07,0.12C216.05,40.2,216,40.23,215.95,40.21"/>
	<path class="flower4" d="M222.9,40.82c-0.01,0.06,0.02,0.03-0.02,0.08c-0.07,0.09-0.2,0.1-0.31,0.14c-0.28,0.08-0.57,0.09-0.86,0.11
		c-0.11,0.01-0.21-0.07-0.22-0.18c-0.01-0.11,0.07-0.21,0.18-0.22c0.27-0.04,0.53-0.11,0.81-0.15c0.11-0.02,0.22-0.06,0.32-0.02
		c0.05,0.02,0.01,0.02,0.05,0.06c0.05-0.02,0.1,0.01,0.12,0.07C222.99,40.75,222.96,40.8,222.9,40.82"/>
	<path class="flower8" d="M307.84,75.33c-0.82,2.55-3.07,4.63-6.73,4.47c6.3,4.35,3.55,18.82-7.09,19.16c6.3,4.53,0.79,13.24-5.71,9.58
		c5.91,7.14-0.59,17.22-12.01,14.8c-0.79,15.17-24.43,17.76-24.43,0V75.33H307.84z"/>
	<path class="flower9" d="M276.23,124.13c-0.52-1.62-1.42-3.18-2.58-4.47c-1.17-1.29-2.6-2.28-4.19-2.77c-1.04-0.32-2.13-0.37-3.29-0.22
		c-0.16,0.02-0.32,0.05-0.48,0.04c-0.22-0.01-0.34-0.08-0.56-0.11c-0.11,0.04-0.24-0.01-0.28-0.12c-0.05-0.11,0.01-0.24,0.12-0.29
		c0.15-0.19,0.22-0.31,0.41-0.46c0.15-0.12,0.33-0.17,0.51-0.24c1.34-0.49,2.72-0.41,4-0.08c1.88,0.49,3.58,1.7,4.9,3.27
		c1.16,1.37,2.05,3.03,2.5,4.75l0.03,0.1c-0.33-0.05-0.66-0.11-1-0.18C276.28,123.61,276.25,123.87,276.23,124.13"/>
	<path class="flower9" d="M267.1,123.75c-0.11,0.2-0.31,0.32-0.55,0.41c-0.48,0.18-1.11,0.14-1.51,0.17c-0.32,0.01-0.63,0.02-0.96,0
		c-1.26-0.09-2.55-0.46-3.71-1.01c-1.51-0.72-2.79-1.85-3.57-3.38c-1.23-2.46-1.57-4.87-1.23-7.04c0.4-2.52,1.7-4.71,3.53-6.22
		c2.51-2.07,6.05-2.99,9.54-1.66c1.22,0.46,2.4,1.23,3.55,2.26c0.08,0.06,0.09,0.17,0.03,0.25c-0.06,0.08-0.17,0.09-0.25,0.03
		c-1.2-0.84-2.42-1.36-3.61-1.7c-3.21-0.93-6.28-0.16-8.47,1.75c-1.57,1.37-2.66,3.29-2.99,5.5c-0.29,1.92-0.01,4.07,1.06,6.25
		c0.5,1.04,1.29,1.83,2.21,2.45c1.15,0.77,2.52,1.22,3.87,1.51c0.35,0.08,0.7,0.17,1.05,0.23c0.31,0.07,0.77,0.21,1.2,0.25
		c0.29,0.03,0.55,0.04,0.74-0.1c0.01-0.01,0.04-0.02,0.05,0C267.11,123.71,267.11,123.73,267.1,123.75"/>
	<path class="flower9" d="M294.77,99.58c-0.1,0-0.19,0-0.29-0.01c-2.35-0.08-4.82-0.86-7.07-2.09c-1.45-0.79-2.8-1.8-3.98-2.94
		c-4.01-3.86-5.97-9.26-2.82-14.23c0.67-1.06,1.7-1.92,2.86-2.57c1.13-0.63,2.39-1.05,3.55-1.26c5.21-0.94,7.96,2.35,8.53,5.63
		c0.36,2.07-0.14,4.15-1.43,5.18c-0.87,0.7-2.11,0.97-3.63,0.38c-0.59-0.23-1.22-0.6-1.9-1.12c-0.08-0.05-0.1-0.16-0.05-0.24
		c0.05-0.08,0.16-0.1,0.24-0.05c0.7,0.4,1.34,0.65,1.91,0.81c1.25,0.35,2.2,0.14,2.87-0.44c1.04-0.9,1.4-2.62,1.07-4.34
		c-0.53-2.83-2.94-5.62-7.42-4.76c-1.06,0.2-2.19,0.6-3.21,1.18c-0.99,0.56-1.88,1.3-2.44,2.22c-2.79,4.48-0.88,9.28,2.73,12.73
		c1.11,1.06,2.38,1.98,3.72,2.76c2.08,1.21,4.34,2.01,6.53,2.28c0.38,0.05,0.76,0.07,1.13,0.09c-0.53,0.1-1.08,0.16-1.66,0.18
		C294.29,99.16,294.54,99.37,294.77,99.58"/>
	<path class="flower9" d="M252.49,75.33c-0.16,0.16-0.31,0.34-0.47,0.53l-0.16,0.2v-0.73H252.49z M265.89,75.33
		c1.45,1.4,2.45,3.18,2.97,5.02c0.93,3.28,0.34,6.82-1.99,8.88c-1.36,1.2-3.33,1.88-5.88,1.7c-0.13,0-0.23-0.11-0.23-0.23
		c0-0.13,0.11-0.23,0.23-0.23c2.31-0.07,3.98-0.85,5.15-2.01c1.92-1.91,2.38-4.93,1.55-7.78c-0.61-2.07-1.9-4.02-3.8-5.35H265.89z"
		/>
	<path class="flower9" d="M258.64,81.78c0.01,0.01,0.01,0.02,0,0.03C258.63,81.83,258.64,81.81,258.64,81.78
		c-0.04-0.06-0.3,0.01-0.38,0.01c-0.36-0.01-0.74,0.07-1.14,0.17c-0.37,0.09-0.75,0.21-1.13,0.36c-1.21,0.48-2.4,1.21-3.23,1.78
		c-0.34,0.21-0.64,0.46-0.9,0.76v-1.91l0.13-0.08c0.94-0.54,2.28-1.24,3.63-1.63c0.45-0.13,0.9-0.24,1.34-0.27
		c0.5-0.04,0.97,0,1.41,0.11c0.17,0.05,0.56,0.16,0.65,0.31c0.03,0.05,0.09,0.08,0.07,0.12c-0.04,0.08,0.05,0.03-0.02,0.07
		c-0.1,0.05,0.06,0.06-0.07,0.08c-0.06,0.01,0,0.02-0.07,0.04c-0.04,0.01-0.08,0.07-0.17,0.08c-0.02,0.01-0.04,0-0.05-0.01
		c-0.01-0.02,0-0.04,0.01-0.05c0.03-0.04,0.02-0.1,0.04-0.1c0.02,0-0.05-0.02-0.04-0.01c0.03,0.03-0.07-0.01-0.03,0.01
		c0.06,0.03-0.11,0.02-0.05,0.03c0.05,0.01-0.07,0.02-0.02,0.04C258.64,81.7,258.64,81.74,258.64,81.78"/>
	<path class="flower9" d="M271.41,93.51c0.52-0.27,1.02-0.47,1.56-0.55c0.14-0.02,0.28-0.02,0.42-0.03c1.61-0.05,3.18,0.57,4.54,1.67
		c1.69,1.36,3.03,3.45,3.83,5.69c1.68,4.71,0.85,10.12-4.34,11.81c-0.93,0.25-1.96,0.53-2.98,0.58c-0.35,0.02-0.7,0.02-1.04-0.03
		c-0.35-0.06-0.67-0.17-0.99-0.32c-0.08-0.03-0.13-0.12-0.1-0.2c0.03-0.08,0.12-0.13,0.21-0.1c0.31,0.06,0.62,0.06,0.93,0.05
		c0.3-0.01,0.61-0.03,0.92-0.08c0.95-0.16,1.89-0.54,2.73-0.87c1.79-0.6,2.95-1.72,3.62-3.1c1.02-2.12,0.88-4.86,0.01-7.37
		c-0.6-1.72-1.55-3.33-2.72-4.59c-0.53-0.58-1.1-1.09-1.71-1.49c-1.01-0.68-2.12-1.04-3.29-1.09c-0.51-0.02-1.02-0.02-1.56,0.09
		c-0.02,0.01-0.04,0-0.05-0.02C271.39,93.54,271.39,93.52,271.41,93.51"/>
	<path class="flower9" d="M283.89,78.44c0.03-0.11,0.04-0.2,0.08-0.3c0.15-0.36,0.35-0.67,0.5-1c0.26-0.6,0.43-1.2,0.5-1.81h0.98
		c-0.17,0.84-0.5,1.66-1.07,2.39c-0.17,0.22-0.36,0.43-0.59,0.61c-0.08,0.06-0.15,0.12-0.25,0.16c-0.04,0.01-0.05,0.01-0.09,0.01
		c-0.01,0.02-0.04,0.02-0.05,0C283.88,78.48,283.88,78.45,283.89,78.44"/>
	<path class="flower8" d="M193.6,75.33c0.82,2.55,3.07,4.63,6.73,4.47c-6.3,4.35-3.55,18.82,7.09,19.16c-6.3,4.53-0.79,13.24,5.71,9.58
		c-5.91,7.14,0.59,17.22,12.01,14.8c0.79,15.17,24.43,17.76,24.43,0V75.33H193.6z"/>
	<path class="flower9" d="M224.31,123.49c0.3-1.09,0.77-2.15,1.37-3.13c0.34-0.55,0.72-1.07,1.13-1.55c1.31-1.52,2.96-2.71,4.8-3.2
		c1.24-0.33,2.59-0.4,3.9,0.04c0.17,0.06,0.35,0.11,0.5,0.21c0.17,0.11,0.28,0.23,0.43,0.38c0.08,0.03,0.12,0.13,0.09,0.21
		c-0.03,0.08-0.13,0.12-0.21,0.09c-0.2,0-0.34,0.05-0.54,0.04c-0.17-0.01-0.32-0.04-0.48-0.07c-1.19-0.19-2.31-0.14-3.38,0.18
		c-1.62,0.48-3.09,1.5-4.28,2.83c-1.09,1.22-1.95,2.67-2.47,4.2c-0.01-0.13-0.02-0.26-0.03-0.39
		C224.86,123.4,224.59,123.45,224.31,123.49"/>
	<path class="flower9" d="M234.38,123.71c0.19,0.15,0.46,0.17,0.75,0.15c0.43-0.02,0.89-0.15,1.21-0.2c0.29-0.04,0.59-0.11,0.88-0.17
		c1.15-0.22,2.31-0.56,3.36-1.1c1.28-0.67,2.38-1.62,3.03-2.95c1.1-2.22,1.38-4.4,1.08-6.36c-0.34-2.25-1.46-4.21-3.07-5.6
		c-2.23-1.94-5.37-2.72-8.62-1.74c-1.19,0.36-2.4,0.92-3.6,1.78c-0.06,0.04-0.14,0.04-0.18-0.02c-0.04-0.06-0.03-0.14,0.02-0.18
		c1.15-1.01,2.34-1.74,3.55-2.19c3.46-1.27,6.93-0.38,9.4,1.67c1.79,1.5,3.07,3.64,3.46,6.12c0.33,2.13,0,4.51-1.2,6.93
		c-0.76,1.5-2.01,2.6-3.49,3.32c-1.14,0.56-2.41,0.91-3.66,1.03c-0.32,0.03-0.63,0.03-0.95,0.03c-0.39-0.01-1.01,0.04-1.49-0.11
		c-0.24-0.08-0.43-0.19-0.55-0.37c-0.01-0.01-0.01-0.03,0-0.04C234.36,123.69,234.37,123.69,234.38,123.71"/>
	<path class="flower9" d="M206.26,98.86c0.21-0.01,0.42-0.03,0.63-0.05c2.21-0.25,4.5-1.04,6.61-2.26c1.35-0.78,2.64-1.72,3.75-2.79
		c3.66-3.51,5.58-8.39,2.74-12.93c-0.58-0.93-1.48-1.69-2.5-2.26c-1.04-0.59-2.19-0.99-3.26-1.19c-4.58-0.87-7.04,1.99-7.57,4.88
		c-0.33,1.77,0.06,3.54,1.12,4.46c0.7,0.6,1.68,0.81,2.97,0.43c0.58-0.17,1.21-0.44,1.91-0.85c0.06-0.04,0.14-0.02,0.17,0.04
		c0.04,0.06,0.02,0.14-0.04,0.18c-0.68,0.5-1.31,0.86-1.9,1.08c-1.49,0.56-2.68,0.3-3.53-0.38c-1.25-1.01-1.74-3.04-1.38-5.07
		c0.57-3.22,3.27-6.44,8.38-5.51c1.15,0.21,2.39,0.63,3.51,1.25c1.14,0.63,2.15,1.48,2.81,2.52c3.1,4.91,1.15,10.23-2.81,14.03
		c-1.17,1.12-2.51,2.12-3.94,2.91c-2.22,1.23-4.67,2.01-7,2.11l-0.15,0.01c0.19-0.17,0.4-0.34,0.62-0.5
		C207.02,98.95,206.63,98.92,206.26,98.86"/>
	<path class="flower9" d="M237.25,75.33c-1.83,1.35-3.07,3.27-3.67,5.31c-0.85,2.9-0.37,5.99,1.61,7.92c1.19,1.16,2.91,1.93,5.25,1.97
		c0.09,0,0.17,0.07,0.17,0.16c0,0.09-0.07,0.17-0.16,0.17c-2.52,0.14-4.44-0.55-5.78-1.74c-2.27-2.04-2.85-5.51-1.94-8.73
		c0.53-1.87,1.56-3.66,3.06-5.06H237.25z M249.57,75.94l-0.1-0.13c-0.13-0.17-0.26-0.33-0.4-0.48h0.5V75.94z"/>
	<path class="flower9" d="M242.68,81.78c-0.08-0.02-0.12-0.06-0.15-0.08c-0.04-0.02-0.02-0.02-0.05-0.04c-0.03-0.01,0.01-0.02-0.03-0.03
		c-0.08-0.03-0.01-0.01-0.04-0.1c-0.01-0.03,0.03-0.06,0.06-0.1c0.09-0.13,0.45-0.23,0.61-0.27c0.42-0.1,0.88-0.12,1.37-0.07
		c0.43,0.04,0.87,0.15,1.31,0.29c1.33,0.4,2.65,1.11,3.57,1.65c0.08,0.05,0.16,0.1,0.23,0.16v1.39c-0.24-0.25-0.5-0.47-0.8-0.65
		c-0.84-0.56-2.05-1.29-3.28-1.76c-0.39-0.15-0.78-0.27-1.16-0.35c-0.41-0.09-0.8-0.16-1.17-0.14c-0.1,0-0.43-0.07-0.41,0.05
		c0.01,0.04-0.04-0.07-0.02-0.08c0.04-0.03-0.09,0.02-0.06-0.02c0.01-0.01-0.03,0.02-0.02,0.01c0.03,0,0.02,0.05,0.06,0.09
		c0.01,0.01,0.02,0.02,0.01,0.04C242.71,81.78,242.7,81.79,242.68,81.78"/>
	<path class="flower9" d="M230,93.57c-0.54-0.13-1.05-0.16-1.56-0.15c-1.2,0.01-2.33,0.38-3.36,1.06c-0.62,0.41-1.21,0.92-1.75,1.5
		c-1.18,1.27-2.14,2.9-2.75,4.64c-0.89,2.55-1.03,5.33,0.01,7.48c0.68,1.41,1.87,2.55,3.71,3.16c0.86,0.32,1.81,0.68,2.76,0.83
		c0.31,0.05,0.63,0.07,0.94,0.07c0.32,0,0.63-0.02,0.94-0.09c0.06-0.02,0.13,0.01,0.15,0.08c0.02,0.06-0.01,0.13-0.07,0.15
		c-0.32,0.14-0.64,0.24-0.99,0.28c-0.33,0.05-0.68,0.04-1.02,0.02c-1-0.07-2.03-0.36-2.94-0.62c-5.1-1.67-5.89-7-4.24-11.63
		c0.79-2.22,2.12-4.28,3.78-5.64c1.33-1.09,2.87-1.75,4.45-1.69c0.54,0.02,1.08,0.12,1.61,0.33c0.13,0.05,0.24,0.11,0.37,0.18
		c0.01,0.01,0.02,0.02,0.02,0.03C230.03,93.57,230.01,93.57,230,93.57"/>
	<path class="flower9" d="M217.49,78.48c-0.03-0.01-0.05-0.01-0.08-0.02c-0.09-0.04-0.16-0.11-0.23-0.17c-0.22-0.19-0.4-0.4-0.56-0.62
		c-0.53-0.72-0.85-1.52-1.01-2.34h0.72c0.09,0.63,0.27,1.24,0.55,1.85c0.16,0.33,0.36,0.64,0.54,0.98c0.05,0.09,0.07,0.18,0.11,0.28
		c0.01,0.01,0.01,0.03,0,0.04C217.52,78.49,217.5,78.49,217.49,78.48"/>
</g>
</svg>
