<?xml version="1.0" encoding="utf-8"?>
<!-- Generator: Adobe Illustrator 25.4.1, SVG Export Plug-In . SVG Version: 6.00 Build 0)  -->
<svg version="1.0" id="Camada_1" xmlns="http://www.w3.org/2000/svg" xmlns:xlink="http://www.w3.org/1999/xlink" x="0px" y="0px"
	 viewBox="0 0 80 65" style="enable-background:new 0 0 80 65;" xml:space="preserve">
<style type="text/css">
	.arrows0{fill:#292929;}
	.arrows1{opacity:0.5;}
	.arrows2{clip-path:url(#SVGID_00000129169796270104683450000000932502295954864267_);fill:#ED757C;}
</style>
<g>
	<g>
		<path class="arrows0" d="M63.14,63.03c-1.32,0-2.64-0.45-3.69-1.37c-1.2-1.05-1.88-2.5-1.94-4.09c-0.04-1.19,0.3-2.35,0.95-3.33H18.89
			c-3.1,0-5.67-2.34-5.85-5.33c-0.09-1.59,0.45-3.1,1.54-4.25c1.07-1.13,2.57-1.78,4.13-1.78h39.8c-0.61-0.96-0.94-2.09-0.93-3.24
			c0.01-1.53,0.6-2.94,1.66-3.97c1.07-1.04,2.47-1.61,3.96-1.61c1.52,0,2.95,0.59,4.02,1.66l8.82,8.82l0,0
			c0.04,0.04,0.09,0.09,0.12,0.12c0.05,0.05,0.15,0.16,0.24,0.27c0.05,0.06,0.1,0.13,0.14,0.19c0.05,0.05,0.13,0.17,0.21,0.29
			c0.01,0.01,0.05,0.08,0.05,0.09c0.08,0.12,0.17,0.26,0.23,0.39c0.01,0.02,0.02,0.04,0.03,0.07c0.07,0.13,0.13,0.27,0.19,0.4
			c0.01,0.03,0.04,0.1,0.05,0.13c0.04,0.09,0.09,0.25,0.14,0.41c0.01,0.02,0.01,0.04,0.02,0.07c0.04,0.15,0.08,0.29,0.11,0.45
			c0.01,0.04,0.02,0.14,0.03,0.19c0.02,0.12,0.04,0.25,0.06,0.39c0.02,0.17,0.03,0.37,0.03,0.57c0,0.2-0.01,0.4-0.03,0.6
			c-0.01,0.11-0.03,0.24-0.05,0.37c0,0.04-0.01,0.09-0.02,0.14c-0.04,0.19-0.08,0.34-0.12,0.49c-0.01,0.03-0.02,0.06-0.02,0.09
			c-0.04,0.13-0.09,0.29-0.16,0.44c-0.09,0.21-0.15,0.35-0.22,0.48c-0.08,0.16-0.13,0.25-0.19,0.34c-0.08,0.14-0.13,0.22-0.18,0.28
			c-0.03,0.05-0.1,0.15-0.18,0.25c-0.03,0.05-0.08,0.12-0.15,0.19c-0.01,0.02-0.09,0.11-0.18,0.2c-0.06,0.07-0.1,0.12-0.15,0.16
			l-8.69,8.7C66.17,62.44,64.65,63.03,63.14,63.03z M18.7,44.82c-1.04,0-2.01,0.42-2.72,1.18c-0.72,0.76-1.08,1.76-1.02,2.81
			c0.12,1.97,1.85,3.51,3.93,3.51h41.75c0.39,0,0.74,0.24,0.89,0.6c0.15,0.36,0.07,0.78-0.21,1.05l-0.78,0.78
			c-0.74,0.74-1.13,1.72-1.09,2.77c0.03,1.05,0.49,2.01,1.28,2.7c1.48,1.3,3.77,1.17,5.23-0.29l8.7-8.71c0-0.01,0.06-0.07,0.07-0.08
			c0.08-0.09,0.13-0.13,0.16-0.18l0.83,0.5l-0.76-0.6c0.08-0.1,0.12-0.16,0.16-0.22l0.1-0.16c0.03-0.04,0.06-0.09,0.08-0.14
			c0.09-0.18,0.13-0.27,0.17-0.36c0.05-0.13,0.08-0.23,0.12-0.33c0.01-0.04,0.01-0.07,0.02-0.09c0.03-0.09,0.05-0.19,0.07-0.29
			c-0.01,0.02,0-0.04,0.01-0.09c0.01-0.07,0.03-0.16,0.04-0.26c0.02-0.14,0.02-0.26,0.02-0.37c0-0.11,0-0.23-0.02-0.34
			c-0.01-0.12-0.03-0.21-0.04-0.3c0-0.02-0.01-0.11-0.02-0.13c-0.01-0.05-0.04-0.16-0.07-0.27v0c-0.01-0.02-0.01-0.05-0.02-0.07
			c-0.03-0.11-0.06-0.19-0.09-0.26c-0.05-0.12-0.09-0.2-0.13-0.29c-0.02-0.04-0.04-0.07-0.06-0.11c-0.04-0.08-0.08-0.14-0.12-0.2
			c-0.01-0.02-0.05-0.09-0.06-0.1c-0.04-0.07-0.08-0.12-0.13-0.17c-0.02-0.02-0.04-0.06-0.06-0.08c-0.01-0.01-0.01-0.02-0.02-0.03
			c-0.07-0.09-0.15-0.17-0.22-0.25v0c-0.01-0.01-0.02-0.02-0.02-0.02l-8.82-8.82c-1.4-1.4-3.84-1.42-5.27-0.04
			c-0.69,0.67-1.07,1.59-1.07,2.6c-0.01,1.07,0.41,2.11,1.15,2.85l0.66,0.66c0.28,0.28,0.36,0.69,0.21,1.05
			c-0.15,0.36-0.5,0.6-0.89,0.6H18.7z"/>
	</g>
	<g>
		<path class="arrows0" d="M27.53,35.12c-1.51,0-2.94-0.59-4.01-1.66l-8.83-8.83c-0.02-0.02-0.05-0.06-0.07-0.08
			c-0.1-0.1-0.2-0.22-0.3-0.34l0,0c-0.03-0.04-0.07-0.08-0.08-0.1c-0.1-0.13-0.18-0.24-0.25-0.35h0c-0.02-0.03-0.05-0.07-0.06-0.09
			l-0.09-0.15c-0.05-0.08-0.1-0.16-0.14-0.25c-0.11-0.21-0.17-0.34-0.23-0.48c-0.01-0.02-0.03-0.08-0.04-0.1
			c-0.05-0.11-0.1-0.27-0.15-0.43c-0.01-0.02-0.01-0.05-0.02-0.07h0c-0.06-0.2-0.09-0.34-0.12-0.48c0-0.02-0.01-0.05-0.01-0.08
			c0-0.02-0.01-0.04-0.01-0.05c-0.03-0.15-0.05-0.3-0.06-0.45c-0.02-0.12-0.03-0.32-0.03-0.52c0-0.2,0.01-0.4,0.03-0.59
			c0-0.07,0.02-0.22,0.05-0.36c0-0.02,0.01-0.04,0.01-0.06l0.01-0.08c0.03-0.15,0.07-0.3,0.11-0.43h0c0.01-0.06,0.03-0.11,0.04-0.15
			c0.04-0.14,0.1-0.29,0.16-0.45c0.08-0.2,0.15-0.34,0.22-0.47c0.11-0.21,0.18-0.33,0.26-0.46c0.01-0.02,0.05-0.09,0.11-0.16
			c0.04-0.06,0.11-0.16,0.18-0.25c0.05-0.07,0.09-0.13,0.15-0.18c0.02-0.03,0.1-0.12,0.18-0.2l0.78,0.57l-0.69-0.68l8.77-8.77
			c2.18-2.17,5.63-2.34,7.87-0.37c1.2,1.05,1.88,2.5,1.93,4.09c0.04,1.18-0.3,2.35-0.95,3.33h39.58c3.1,0,5.67,2.34,5.85,5.33
			c0.09,1.59-0.45,3.09-1.54,4.24c-1.07,1.13-2.57,1.78-4.13,1.78h-39.8c0.61,0.96,0.94,2.09,0.93,3.24
			c-0.01,1.53-0.6,2.94-1.65,3.97C30.43,34.55,29.02,35.12,27.53,35.12z M15.54,22.63c0.02,0.03,0.03,0.05,0.04,0.07
			c0.06,0.08,0.1,0.15,0.15,0.21c0.02,0.02,0.06,0.08,0.08,0.1c0.07,0.09,0.14,0.17,0.22,0.25l8.84,8.84
			c1.41,1.4,3.85,1.42,5.27,0.03c0.68-0.67,1.07-1.59,1.07-2.6c0.01-1.07-0.41-2.11-1.15-2.85l-0.66-0.66
			c-0.28-0.28-0.36-0.69-0.21-1.05s0.5-0.6,0.89-0.6h41.93c1.04,0,2.01-0.42,2.73-1.18c0.72-0.76,1.08-1.76,1.02-2.8
			c-0.12-1.97-1.85-3.51-3.93-3.51H30.09c-0.39,0-0.74-0.24-0.89-0.6c-0.15-0.36-0.07-0.78,0.21-1.05l0.78-0.78
			c0.74-0.74,1.13-1.72,1.09-2.77c-0.03-1.05-0.49-2.01-1.28-2.7c-1.48-1.3-3.77-1.17-5.23,0.29l-8.71,8.71
			c-0.01,0.01-0.06,0.08-0.07,0.09c-0.08,0.08-0.12,0.13-0.16,0.17l-0.81-0.53l0.72,0.65c-0.05,0.07-0.1,0.13-0.15,0.2
			c-0.01,0.02-0.04,0.07-0.05,0.09c-0.04,0.07-0.08,0.13-0.12,0.2c-0.08,0.17-0.13,0.26-0.17,0.35c-0.05,0.12-0.08,0.22-0.11,0.31
			c0,0.02-0.01,0.03-0.01,0.05c-0.04,0.14-0.07,0.23-0.08,0.31c0,0.04-0.01,0.09-0.02,0.14c-0.01,0.06-0.02,0.12-0.02,0.18
			c-0.02,0.19-0.02,0.3-0.02,0.42c0,0.12,0,0.23,0.02,0.35c0.01,0.15,0.03,0.22,0.04,0.29h0c0.01,0.05,0.02,0.1,0.02,0.14
			c0.01,0.05,0.03,0.13,0.06,0.21c0.01,0.02,0.01,0.05,0.02,0.08c0-0.01-0.01-0.02-0.01-0.03c0,0.01,0.01,0.02,0.01,0.03
			c0.02,0.08,0.04,0.19,0.04,0.25c0-0.1-0.02-0.19-0.03-0.24c0.04,0.13,0.07,0.22,0.11,0.3c0.01,0.02,0.03,0.08,0.04,0.1
			c0.02,0.04,0.06,0.13,0.11,0.23c0,0.01,0.05,0.09,0.05,0.1c0.01,0.01,0.03,0.05,0.06,0.1L15.54,22.63z M13.14,21.72
			C13.15,21.72,13.15,21.73,13.14,21.72C13.15,21.73,13.15,21.72,13.14,21.72z M13.14,21.72C13.14,21.72,13.14,21.72,13.14,21.72
			C13.14,21.72,13.14,21.72,13.14,21.72z M13.14,21.72L13.14,21.72L13.14,21.72z"/>
	</g>
	<g class="arrows1">
		<g>
			<defs>
				<rect id="SVGID_61_" x="2.3" y="1.97" width="62.74" height="54.95"/>
			</defs>
			<clipPath id="SVGID_00000034789590839416872510000001989380502101991853_">
				<use xlink:href="#SVGID_61_"  style="overflow:visible;"/>
			</clipPath>
			<path style="clip-path:url(#SVGID_00000034789590839416872510000001989380502101991853_);fill:#ED757C;" d="M63.97,40.42
				c0.03,0.04,0.06,0.08,0.08,0.11c0.07,0.09,0.14,0.17,0.19,0.26c0.02,0.03,0.04,0.07,0.06,0.1c0.06,0.1,0.13,0.2,0.18,0.3
				c0.01,0.02,0.03,0.05,0.03,0.07c0.06,0.11,0.12,0.23,0.17,0.35c0.01,0.01,0.01,0.03,0.02,0.05c0.05,0.13,0.1,0.25,0.13,0.38
				c0.01,0.02,0.01,0.04,0.01,0.05c0.04,0.13,0.07,0.26,0.1,0.39c0.01,0.04,0.01,0.08,0.01,0.12c0.02,0.11,0.04,0.22,0.05,0.34
				c0.02,0.16,0.03,0.31,0.03,0.47c0,0.16-0.01,0.32-0.03,0.47C65,44,64.99,44.11,64.97,44.22c-0.01,0.04-0.01,0.08-0.01,0.12
				c-0.03,0.13-0.06,0.26-0.1,0.39c-0.01,0.02-0.01,0.04-0.01,0.05c-0.04,0.13-0.08,0.26-0.13,0.38c-0.01,0.02-0.01,0.03-0.02,0.05
				c-0.05,0.12-0.1,0.23-0.16,0.34c-0.01,0.02-0.02,0.05-0.04,0.07c-0.05,0.1-0.12,0.2-0.17,0.29c-0.02,0.03-0.04,0.07-0.06,0.1
				c-0.06,0.09-0.12,0.16-0.18,0.24c-0.03,0.04-0.06,0.09-0.1,0.13c-0.06,0.08-0.13,0.15-0.21,0.23c-0.03,0.04-0.06,0.08-0.1,0.11
				l-8.7,8.71c-0.94,0.94-2.19,1.44-3.44,1.46h-0.14c-1.06-0.02-2.12-0.38-2.97-1.13c-2.07-1.81-2.14-4.97-0.23-6.88l0.78-0.78H7.2
				c-2.52,0-4.74-1.9-4.89-4.42c0-0.09-0.01-0.17-0.01-0.26c-0.02-2.62,2.1-4.75,4.71-4.75h41.94l-0.66-0.66
				c-1.85-1.86-1.95-4.99-0.07-6.83c0.91-0.89,2.1-1.34,3.29-1.34c1.2,0,2.41,0.46,3.33,1.38l8.82,8.82
				c0.02,0.01,0.03,0.03,0.04,0.04C63.79,40.22,63.88,40.32,63.97,40.42"/>
			<path style="clip-path:url(#SVGID_00000034789590839416872510000001989380502101991853_);fill:#ED757C;" d="M3.38,18.46
				c-0.03-0.04-0.06-0.07-0.09-0.11c-0.06-0.08-0.13-0.17-0.19-0.26c-0.03-0.03-0.04-0.07-0.06-0.1c-0.06-0.1-0.12-0.2-0.17-0.3
				c-0.01-0.02-0.03-0.05-0.04-0.07c-0.06-0.11-0.11-0.23-0.16-0.35l-0.02-0.05c-0.05-0.13-0.1-0.26-0.13-0.39
				C2.5,16.83,2.5,16.81,2.5,16.79c-0.04-0.13-0.08-0.26-0.1-0.39c-0.01-0.04-0.01-0.08-0.02-0.12c-0.02-0.11-0.04-0.22-0.04-0.34
				c-0.02-0.16-0.03-0.31-0.03-0.47c0-0.16,0.01-0.31,0.03-0.47c0.01-0.12,0.02-0.23,0.04-0.34c0.01-0.04,0.01-0.08,0.02-0.12
				c0.02-0.13,0.06-0.26,0.1-0.39c0-0.02,0.01-0.04,0.01-0.05c0.04-0.13,0.08-0.26,0.13-0.38c0.01-0.02,0.01-0.03,0.02-0.05
				c0.05-0.12,0.1-0.23,0.16-0.34c0.01-0.03,0.02-0.05,0.04-0.07c0.05-0.1,0.11-0.2,0.17-0.29c0.02-0.04,0.04-0.07,0.06-0.11
				c0.06-0.08,0.12-0.16,0.18-0.24c0.03-0.04,0.06-0.09,0.1-0.13c0.06-0.08,0.14-0.15,0.21-0.23c0.03-0.04,0.06-0.08,0.1-0.11
				l8.71-8.71c1.78-1.77,4.67-1.99,6.55-0.33c2.06,1.82,2.14,4.97,0.23,6.88l-0.78,0.77h41.75c2.52,0,4.74,1.9,4.89,4.42
				c0,0.08,0.01,0.16,0.01,0.23v0.08c-0.02,2.59-2.12,4.68-4.71,4.68H18.39l0.66,0.66c1.85,1.86,1.95,4.99,0.07,6.82
				C18.21,28.56,17.02,29,15.84,29c-1.2,0-2.41-0.46-3.33-1.38L3.68,18.8c-0.01-0.01-0.02-0.03-0.04-0.04
				C3.55,18.66,3.46,18.56,3.38,18.46"/>
		</g>
	</g>
</g>
</svg>
