<?xml version="1.0" encoding="utf-8"?>
<!-- Generator: Adobe Illustrator 25.4.1, SVG Export Plug-In . SVG Version: 6.00 Build 0)  -->
<svg version="1.0" id="Camada_1" xmlns="http://www.w3.org/2000/svg" xmlns:xlink="http://www.w3.org/1999/xlink" x="0px" y="0px"
	 viewBox="0 0 70 70" style="enable-background:new 0 0 70 70;" xml:space="preserve">
<style type="text/css">
	.check0{fill:#292929;}
	.check1{opacity:0.5;}
	.check2{clip-path:url(#SVGID_00000068651286395757817340000000714874435898419106_);fill:#A1C758;}
</style>
<g>
	<g>
		<path class="check0" d="M25.62,54.73c-3.05,0-5.92-1.19-8.08-3.35L5.64,39.49c-4.45-4.46-4.45-11.71,0-16.17
			c4.46-4.46,11.71-4.46,16.17,0l3.86,3.86L48.25,4.9C52.73,0.47,59.98,0.52,64.41,5s4.38,11.74-0.1,16.16L33.64,51.43
			C31.49,53.56,28.64,54.73,25.62,54.73z M13.72,21.91c-2.43,0-4.87,0.93-6.72,2.78c-3.7,3.7-3.7,9.73,0,13.44L18.9,50.01
			c1.8,1.79,4.18,2.78,6.72,2.78c2.51,0,4.88-0.97,6.67-2.74l30.66-30.26c3.73-3.68,3.77-9.71,0.09-13.43
			c-3.68-3.73-9.71-3.77-13.43-0.09L26.34,29.23c-0.38,0.37-0.99,0.37-1.36,0l-4.54-4.54C18.59,22.83,16.16,21.91,13.72,21.91z"/>
	</g>
	<g class="check1">
		<g>
			<defs>
				<rect id="SVGID_59_" x="3.26" y="17.2" width="63.48" height="51.19"/>
			</defs>
			<clipPath id="SVGID_00000016784736799881349530000014455367932472939674_">
				<use xlink:href="#SVGID_59_"  style="overflow:visible;"/>
			</clipPath>
			<path style="clip-path:url(#SVGID_00000016784736799881349530000014455367932472939674_);fill:#A1C758;" d="M25.62,68.39
				c-2.68,0-5.36-1.02-7.4-3.07L6.32,53.44c-4.09-4.09-4.09-10.71,0-14.8c4.09-4.09,10.71-4.09,14.8,0l4.54,4.54l23.26-22.96
				c4.11-4.06,10.74-4.02,14.8,0.1c4.06,4.11,4.02,10.74-0.1,14.8L32.97,65.38C30.93,67.39,28.27,68.39,25.62,68.39"/>
		</g>
	</g>
</g>
</svg>
