<?xml version="1.0" encoding="utf-8"?>
<!-- Generator: Adobe Illustrator 25.4.1, SVG Export Plug-In . SVG Version: 6.00 Build 0)  -->
<svg version="1.0" id="Camada_1" xmlns="http://www.w3.org/2000/svg" xmlns:xlink="http://www.w3.org/1999/xlink" x="0px" y="0px"
	 viewBox="0 0 72 70" style="enable-background:new 0 0 72 70;" xml:space="preserve">
<style type="text/css">
	.star0{fill:#292929;}
	.star1{opacity:0.5;}
	.star2{clip-path:url(#SVGID_00000173881265423000317060000007696102026280001942_);fill:#F6AB6C;}
</style>
<g>
	<g>
		<path class="star0" d="M52.49,69.17c-0.15,0-0.31-0.04-0.45-0.11l-19.01-10l-19.01,10c-0.33,0.17-0.72,0.14-1.02-0.07
			c-0.3-0.22-0.45-0.58-0.38-0.94l3.63-21.17L0.87,31.88c-0.26-0.26-0.36-0.64-0.24-0.99s0.42-0.6,0.78-0.66l21.25-3.08l9.5-19.26
			c0.33-0.66,1.41-0.66,1.73,0l9.5,19.26l21.25,3.08c0.36,0.05,0.67,0.31,0.78,0.66s0.02,0.73-0.24,0.99L49.81,46.87l3.63,21.17
			c0.06,0.36-0.09,0.73-0.38,0.94C52.89,69.11,52.69,69.17,52.49,69.17z M33.03,57.01c0.15,0,0.31,0.04,0.45,0.11l17.73,9.32
			l-3.38-19.75c-0.05-0.31,0.05-0.63,0.28-0.85l14.34-13.98l-19.82-2.88c-0.31-0.05-0.59-0.24-0.73-0.53L33.03,10.5l-8.86,17.96
			c-0.14,0.29-0.41,0.48-0.73,0.53L3.62,31.86l14.34,13.98c0.23,0.22,0.33,0.54,0.28,0.85l-3.39,19.75l17.73-9.32
			C32.72,57.04,32.88,57.01,33.03,57.01z"/>
	</g>
	<g class="star1">
		<g>
			<defs>
				<rect id="SVGID_64_" x="8.45" y="0.83" width="62.97" height="59.89"/>
			</defs>
			<clipPath id="SVGID_00000048460958347564693960000006300613539394928527_">
				<use xlink:href="#SVGID_64_"  style="overflow:visible;"/>
			</clipPath>
			<polygon style="clip-path:url(#SVGID_00000048460958347564693960000006300613539394928527_);fill:#F6AB6C;" points="39.93,0.83 
				30.2,20.54 8.45,23.7 24.19,39.05 20.47,60.72 39.93,50.49 59.39,60.72 55.68,39.05 71.42,23.7 49.66,20.54 			"/>
		</g>
	</g>
</g>
</svg>
