<?xml version="1.0" encoding="utf-8"?>
<!-- Generator: Adobe Illustrator 25.4.1, SVG Export Plug-In . SVG Version: 6.00 Build 0)  -->
<svg version="1.0" id="Camada_1" xmlns="http://www.w3.org/2000/svg" xmlns:xlink="http://www.w3.org/1999/xlink" x="0px" y="0px"
	 viewBox="0 0 120 135" style="enable-background:new 0 0 120 135;" xml:space="preserve">
<style type="text/css">
	.logo0{fill:#FFFFFF;}
</style>
<path class="logo0" d="M71.98,118.76h-6.91l3.5-9.74L71.98,118.76z M74.68,126.64l1.66,4.7h11.69L74.54,98.05H63.28l-14.01,33.29
	h11.27l1.7-4.7H74.68z M48.21,98.05H37.22v33.29h10.98V98.05z M21.82,97.72c-10.41,0-17.99,7.12-17.99,16.91
	c0,9.92,7.38,17.19,17.56,17.19c5.11,0,10.75-2.61,14.44-6.65l-6.34-6.79c-2.18,2.33-5.16,3.8-7.53,3.8c-3.97,0-6.86-3.23-6.86-7.69
	c0-4.41,2.89-7.6,6.86-7.6c2.56,0,5.54,1.76,7.53,4.46l6.34-7.55C32.43,100.1,26.89,97.72,21.82,97.72z M116.17,83.91V50.62h-9.94
	v17.09L93.11,50.62h-9.18v33.29h9.99v-17l13.06,17H116.17z M80.17,58.98v-8.36H52.1v33.29h28.5v-8.36H63.08v-4.13h15.53v-8.36H63.08
	v-4.08H80.17z M75.91,47.77l-5.73-7.69h-7.95l-5.73,7.69h7.1l2.61-3.9l2.6,3.9H75.91z M48.21,50.62H37.22v33.29h10.98V50.62z
	 M21.82,50.29c-10.41,0-17.99,7.12-17.99,16.9c0,9.92,7.38,17.19,17.56,17.19c5.11,0,10.75-2.61,14.44-6.65l-6.34-6.79
	c-2.18,2.33-5.16,3.8-7.53,3.8c-3.97,0-6.86-3.23-6.86-7.69c0-4.42,2.89-7.6,6.86-7.6c2.56,0,5.54,1.76,7.53,4.46l6.34-7.55
	C32.43,52.66,26.89,50.29,21.82,50.29z M104.14,3.18H93.16v33.29h10.98V3.18z M77.34,27.31V3.18H66.35v33.29h24.8v-9.16H77.34z
	 M62.6,11.54V3.18H34.53v33.29h28.5v-8.36H45.51v-4.13h15.53v-8.36H45.51v-4.08H62.6z M32.19,11.54V3.18H5.49v33.29h10.98V25.65
	h14.72v-8.36H16.47v-5.75H32.19z"/>
</svg>
