<?xml version="1.0" encoding="utf-8"?>
<!-- Generator: Adobe Illustrator 25.4.1, SVG Export Plug-In . SVG Version: 6.00 Build 0)  -->
<svg version="1.0" id="Camada_1" xmlns="http://www.w3.org/2000/svg" xmlns:xlink="http://www.w3.org/1999/xlink" x="0px" y="0px"
	 viewBox="0 0 45 70" style="enable-background:new 0 0 45 70;" xml:space="preserve">
<style type="text/css">
	.question0{fill:#292929;}
	.question1{opacity:0.5;}
	.question2{clip-path:url(#SVGID_00000157273482232767302030000009991707644613430415_);fill:#ED757C;}
</style>
<g>
	<g>
		<path class="question0" d="M21.73,65.21c-4.26,0-7.72-3.46-7.72-7.72c0-4.26,3.46-7.72,7.72-7.72c4.26,0,7.72,3.47,7.72,7.72
			C29.45,61.74,25.98,65.21,21.73,65.21z M21.73,51.69c-3.19,0-5.79,2.6-5.79,5.79c0,3.19,2.6,5.79,5.79,5.79
			c3.19,0,5.79-2.6,5.79-5.79C27.52,54.29,24.92,51.69,21.73,51.69z M21.73,47.39c-1.95,0-3.59-0.68-4.87-2.02
			c-1.05-1.1-1.61-2.65-1.61-4.5c0-3.09,0.93-5.46,3.31-8.43l6.41-8.09c1.6-2,2.29-3.6,2.29-5.38c0-3.38-2.4-5.75-5.83-5.75
			c-2.03,0-3.44,0.54-4.59,1.76c-0.82,0.86-1.38,1.93-1.93,3.71c-0.33,1.1-1.04,2.38-1.74,3.19c-1.13,1.18-2.6,1.71-4.65,1.71
			c-1.75,0-3.33-0.64-4.44-1.81c-1.09-1.14-1.61-2.61-1.61-4.62c0-2.79,1.38-7.32,5.27-10.92C11.31,2.95,16,1.22,21.3,1.22
			c11.23,0,19.08,7.3,19.08,17.75c0,5.28-1.9,8.19-4.38,11.43c0,0,0,0,0,0l-5.17,6.76c-1.39,1.84-1.83,2.92-2.29,4.65
			c-0.41,1.48-1.06,2.7-1.95,3.64C25.34,46.76,23.75,47.39,21.73,47.39z M21.42,11.29c4.5,0,7.76,3.23,7.76,7.68
			c0,2.85-1.45,5.02-2.71,6.59l-6.41,8.09c-2.41,3.01-2.89,4.99-2.89,7.23c0,1.34,0.37,2.43,1.07,3.16
			c0.93,0.97,2.03,1.43,3.47,1.43c1.49,0,2.6-0.43,3.48-1.34c0.66-0.7,1.16-1.65,1.48-2.82c0.51-1.93,1.03-3.23,2.61-5.32l5.17-6.76
			c2.75-3.61,3.98-5.94,3.98-10.26c0-9.31-7.05-15.82-17.15-15.82c-4.81,0-9.05,1.56-12.25,4.52c-3.21,2.97-4.65,6.91-4.65,9.5
			c0,1.5,0.33,2.51,1.07,3.28c0.76,0.8,1.81,1.22,3.05,1.22c1.51,0,2.5-0.33,3.22-1.08c0.5-0.57,1.06-1.62,1.32-2.46
			c0.45-1.46,1.08-3.13,2.38-4.47C16.92,12.06,18.89,11.29,21.42,11.29z M35.24,29.81L35.24,29.81L35.24,29.81z"/>
	</g>
	<g class="question1">
		<g>
			<defs>
				<rect id="SVGID_62_" x="6.55" y="6.73" width="35.98" height="62.06"/>
			</defs>
			<clipPath id="SVGID_00000155116777102628973910000002251458948814300326_">
				<use xlink:href="#SVGID_62_"  style="overflow:visible;"/>
			</clipPath>
			<path style="clip-path:url(#SVGID_00000155116777102628973910000002251458948814300326_);fill:#ED757C;" d="M42.53,23.65v-0.21
				C42.5,12.94,34.38,6.73,24.42,6.73c-5.21,0-9.64,1.76-12.91,4.77c-3.45,3.19-4.96,7.41-4.96,10.21c0,1.76,0.43,3.01,1.34,3.95
				c0.9,0.95,2.19,1.51,3.74,1.51c1.63,0,2.93-0.35,3.92-1.38c0.6-0.69,1.25-1.85,1.55-2.84c0.52-1.68,1.12-3.02,2.15-4.09
				c1.38-1.47,3.1-2.07,5.29-2.07c4.13,0,6.8,2.93,6.8,6.71c0,2.37-1.11,4.26-2.49,5.98l-6.41,8.1c-2.41,3.01-3.1,5.21-3.1,7.83
				c0,1.55,0.43,2.89,1.34,3.83c1.03,1.08,2.36,1.72,4.17,1.72c1.81,0,3.14-0.56,4.18-1.63c0.81-0.87,1.37-1.98,1.72-3.23
				c0.48-1.81,0.95-3.01,2.45-4.99l5.17-6.76C40.96,30.95,42.5,28.34,42.53,23.65 M24.84,55.27c3.7,0,6.76,3.06,6.76,6.76
				c0,3.68-3.02,6.72-6.7,6.76h-0.12c-3.67-0.03-6.7-3.07-6.7-6.76C18.09,58.32,21.14,55.27,24.84,55.27z"/>
		</g>
	</g>
</g>
</svg>
